<svg width="319" height="250" viewBox="0 0 319 250" fill="none" xmlns="http://www.w3.org/2000/svg">
<path d="M306.479 111.356C306.672 111.708 306.864 112.059 307.041 112.411C307.49 112.664 307.956 112.926 308.406 113.179C308.149 112.828 307.876 112.484 307.603 112.133C307.233 111.879 306.864 111.618 306.479 111.356ZM300.441 107.514C300.714 108.119 300.955 108.724 301.196 109.329C302.063 109.754 302.898 110.187 303.733 110.62C303.396 110.032 303.043 109.443 302.657 108.863C301.935 108.405 301.196 107.955 300.441 107.514ZM298.739 104.153C298.932 104.497 299.125 104.848 299.301 105.192C299.751 105.445 300.201 105.699 300.65 105.952C300.393 105.609 300.136 105.274 299.863 104.93C299.494 104.677 299.125 104.415 298.739 104.153ZM294.195 104.039C294.468 104.816 294.725 105.592 294.95 106.377C296.106 106.892 297.23 107.416 298.338 107.939C298.001 107.178 297.631 106.434 297.246 105.682C296.251 105.135 295.239 104.587 294.195 104.039ZM292.702 100.311C292.975 100.908 293.216 101.513 293.457 102.118C294.308 102.543 295.159 102.976 295.994 103.409C295.656 102.829 295.303 102.24 294.934 101.66C294.195 101.202 293.457 100.752 292.702 100.311ZM291 96.9589C291.193 97.3022 291.385 97.6538 291.562 97.9972C292.012 98.2506 292.461 98.5041 292.911 98.7575C292.654 98.4142 292.397 98.0789 292.124 97.7356C291.755 97.4739 291.385 97.2123 291 96.9589ZM160.73 28.4059C160.891 28.6103 161.051 28.8229 161.228 29.0273L161.356 29.1254L160.955 28.5449L160.73 28.4059ZM287.644 100.826C287.869 101.717 288.062 102.625 288.238 103.524C289.635 104.088 290.984 104.652 292.317 105.224C292.028 104.35 291.706 103.475 291.369 102.608C290.149 102.011 288.913 101.415 287.644 100.826ZM286.456 96.8444C286.729 97.6129 286.986 98.3896 287.21 99.1745C288.367 99.6895 289.491 100.213 290.598 100.736C290.261 99.9839 289.892 99.2317 289.507 98.4877C288.511 97.9318 287.5 97.384 286.456 96.8444ZM284.963 93.1081C285.235 93.705 285.476 94.31 285.717 94.9149C286.568 95.3401 287.419 95.7734 288.254 96.2067C287.917 95.6262 287.564 95.0376 287.194 94.4571C286.456 94.0074 285.717 93.5578 284.963 93.1081ZM283.277 89.7561C283.469 90.0995 283.662 90.451 283.839 90.7944C284.288 91.0479 284.738 91.3013 285.187 91.5547C284.93 91.2114 284.673 90.8762 284.401 90.541C284.031 90.2794 283.646 90.0177 283.277 89.7561ZM157.133 23.7213C157.438 24.1382 157.743 24.5634 158.064 24.9803C158.337 25.1602 158.627 25.34 158.899 25.5199C158.627 25.103 158.354 24.6942 158.097 24.2772L157.133 23.7213ZM152.991 21.2114L153.488 21.8327L153.665 21.9635L153.263 21.3749L152.991 21.2114ZM280.756 97.8173C280.9 98.8066 281.029 99.804 281.109 100.801C282.715 101.382 284.272 101.979 285.814 102.567C285.605 101.594 285.38 100.63 285.107 99.6732C283.694 99.0518 282.233 98.4305 280.756 97.8173ZM279.905 93.6232C280.129 94.5143 280.322 95.4137 280.499 96.3211C281.896 96.8771 283.244 97.4494 284.577 98.0135C284.288 97.1387 283.983 96.2721 283.63 95.4055C282.426 94.8087 281.173 94.2118 279.905 93.6232ZM278.716 89.6417C278.989 90.4102 279.246 91.1869 279.471 91.9717C280.627 92.4868 281.751 93.01 282.859 93.5333C282.522 92.7811 282.153 92.029 281.767 91.285C280.788 90.729 279.76 90.1812 278.716 89.6417ZM277.239 85.9135C277.512 86.5104 277.753 87.1154 277.994 87.7204C278.845 88.1455 279.696 88.5788 280.531 89.0121C280.194 88.4316 279.84 87.843 279.471 87.2625C278.716 86.8047 277.978 86.355 277.239 85.9135ZM275.537 82.5615C275.73 82.9049 275.922 83.2565 276.099 83.5999C276.549 83.8533 276.998 84.1067 277.448 84.3602C277.191 84.0168 276.934 83.6816 276.661 83.3464C276.292 83.0766 275.922 82.815 275.537 82.5615ZM153.858 19.053C154.243 19.6335 154.644 20.2139 155.046 20.8026C155.495 21.0806 155.961 21.3504 156.427 21.6283C156.073 21.0478 155.72 20.4673 155.383 19.8869C154.869 19.6171 154.355 19.3392 153.858 19.053ZM149.394 16.5185C149.699 16.9355 150.004 17.3606 150.325 17.7776C150.614 17.9656 150.903 18.1537 151.192 18.3417C150.919 17.9247 150.646 17.5078 150.389 17.0908C150.052 16.9028 149.731 16.7066 149.394 16.5185ZM145.251 14.0086L145.749 14.6299L145.925 14.7608L145.524 14.1721L145.251 14.0086ZM273.498 94.9722C273.562 96.0432 273.594 97.1142 273.594 98.1934C275.377 98.782 277.111 99.3707 278.813 99.9757C278.7 98.9292 278.54 97.8827 278.363 96.8444C276.773 96.2067 275.152 95.5853 273.498 94.9722ZM273.016 90.6146C273.161 91.6038 273.289 92.6012 273.369 93.5987C274.975 94.1791 276.533 94.7678 278.074 95.3646C277.865 94.3917 277.641 93.4351 277.368 92.4786C275.955 91.8491 274.509 91.2277 273.016 90.6146ZM272.165 86.4286C272.39 87.3197 272.583 88.2191 272.759 89.1266C274.14 89.6825 275.505 90.2466 276.838 90.8189C276.549 89.9441 276.244 89.0775 275.89 88.2109C274.686 87.6059 273.434 87.0172 272.165 86.4286ZM270.993 82.4471C271.266 83.2156 271.523 83.9923 271.748 84.7771C272.904 85.2922 274.028 85.8155 275.136 86.3387C274.798 85.5865 274.429 84.8344 274.044 84.0904C273.048 83.5345 272.021 82.9867 270.993 82.4471ZM269.5 78.7108C269.773 79.3076 270.014 79.9126 270.254 80.5176C271.105 80.9427 271.956 81.376 272.791 81.8094C272.454 81.2207 272.101 80.6402 271.732 80.0598C270.993 79.6101 270.254 79.1604 269.5 78.7108ZM267.798 75.3669C267.99 75.7103 268.183 76.0619 268.36 76.4053C268.809 76.6587 269.259 76.9121 269.708 77.1656C269.452 76.8222 269.195 76.487 268.922 76.1518C268.552 75.882 268.183 75.6204 267.798 75.3669ZM150.839 14.3847C151.272 15.0959 151.722 15.8072 152.172 16.5104C152.766 16.8538 153.392 17.1971 154.002 17.5405C153.601 16.8292 153.199 16.1179 152.814 15.4066C152.156 15.0715 151.497 14.7281 150.839 14.3847ZM146.118 11.8584C146.504 12.4389 146.905 13.0193 147.306 13.608C147.772 13.8942 148.254 14.1721 148.719 14.4582C148.366 13.8778 148.013 13.2974 147.676 12.7168C147.146 12.4225 146.632 12.1446 146.118 11.8584ZM141.67 9.32397C141.975 9.7409 142.281 10.1661 142.602 10.583C142.891 10.771 143.18 10.9591 143.469 11.1471C143.196 10.7302 142.923 10.3132 142.666 9.89623C142.329 9.7 141.991 9.51202 141.67 9.32397ZM137.512 6.81402L138.009 7.43535L138.186 7.56621L137.785 6.97753L137.512 6.81402ZM265.823 92.266C265.791 93.4025 265.726 94.5389 265.63 95.6916C267.589 96.2803 269.5 96.8689 271.378 97.4739C271.362 96.3538 271.314 95.242 271.218 94.1383C269.452 93.5006 267.653 92.8792 265.823 92.266ZM265.758 87.7694C265.823 88.8405 265.855 89.9115 265.855 90.9906C267.637 91.5793 269.371 92.1679 271.073 92.7729C270.961 91.7264 270.8 90.68 270.624 89.6417C269.034 89.0121 267.412 88.3826 265.758 87.7694ZM265.277 83.42C265.421 84.4092 265.55 85.4066 265.63 86.4041C267.236 86.9846 268.793 87.5732 270.335 88.17C270.126 87.1971 269.901 86.2406 269.628 85.284C268.215 84.6545 266.77 84.0331 265.277 83.42ZM264.426 79.2259C264.65 80.117 264.843 81.0164 265.02 81.9238C266.417 82.4798 267.766 83.0439 269.098 83.6162C268.809 82.7414 268.504 81.8748 268.151 81.0081C266.947 80.4113 265.71 79.8145 264.426 79.2259ZM263.254 75.2443C263.526 76.0128 263.783 76.7895 264.008 77.5744C265.164 78.0894 266.288 78.6127 267.396 79.1359C267.059 78.3838 266.69 77.6316 266.304 76.8876C265.309 76.3317 264.297 75.7839 263.254 75.2443ZM261.76 71.5162C262.033 72.113 262.274 72.718 262.515 73.323C263.366 73.7482 264.217 74.1815 265.052 74.6148C264.715 74.0343 264.361 73.4456 263.992 72.8652C263.254 72.4155 262.515 71.9658 261.76 71.5162ZM260.074 68.1642C260.267 68.5076 260.444 68.8591 260.636 69.2025C261.086 69.456 261.535 69.7094 261.985 69.9628C261.728 69.6194 261.471 69.2842 261.198 68.949C260.829 68.6874 260.444 68.4258 260.074 68.1642ZM148.077 9.68365C148.543 10.5012 149.008 11.3106 149.49 12.1282C150.213 12.5206 150.967 12.9048 151.706 13.2973C151.272 12.4715 150.855 11.654 150.454 10.8282C149.651 10.444 148.864 10.0597 148.077 9.68365ZM143.115 7.19012C143.549 7.90136 143.999 8.60448 144.448 9.31579C145.058 9.66735 145.685 10.0107 146.311 10.3622C145.909 9.65093 145.508 8.93969 145.123 8.22027C144.448 7.88506 143.774 7.5335 143.115 7.19012ZM138.379 4.65563C138.764 5.23614 139.165 5.81658 139.567 6.39702C140.033 6.68322 140.514 6.96117 140.98 7.24731C140.627 6.6668 140.273 6.08636 139.936 5.50591C139.422 5.22796 138.909 4.94176 138.379 4.65563ZM133.931 2.12121C134.236 2.53814 134.541 2.96325 134.862 3.38024C135.151 3.56829 135.44 3.75628 135.729 3.94433C135.456 3.5274 135.183 3.11046 134.926 2.69347C134.589 2.50542 134.252 2.31737 133.931 2.12121ZM129.788 -0.388742L130.286 0.232596L130.463 0.363394L130.045 -0.225229L129.788 -0.388742ZM257.778 89.7071C257.65 90.8353 257.505 91.9717 257.312 93.1163C259.336 93.7785 261.391 94.4244 263.478 95.0539C263.575 93.8766 263.623 92.7075 263.639 91.5466C261.728 90.9252 259.769 90.312 257.778 89.7071ZM258.083 85.0633C258.051 86.1997 257.987 87.3443 257.891 88.4889C259.849 89.0775 261.76 89.6662 263.639 90.2711C263.623 89.1511 263.575 88.0392 263.478 86.9355C261.712 86.306 259.93 85.6764 258.083 85.0633ZM258.019 80.5749C258.083 81.6459 258.115 82.7169 258.115 83.796C259.898 84.3847 261.632 84.9733 263.334 85.5783C263.221 84.5319 263.061 83.4854 262.884 82.4471C261.311 81.8094 259.689 81.188 258.019 80.5749ZM257.553 76.2172C257.698 77.2064 257.826 78.2039 257.907 79.2013C259.512 79.7818 261.07 80.3704 262.611 80.9673C262.403 79.9944 262.178 79.0378 261.905 78.0813C260.492 77.4517 259.031 76.8304 257.553 76.2172ZM256.702 72.0313C256.927 72.9224 257.12 73.8217 257.296 74.7292C258.693 75.2852 260.042 75.8493 261.375 76.4216C261.086 75.5468 260.781 74.6802 260.428 73.8136C259.207 73.2167 257.971 72.6199 256.702 72.0313ZM255.514 68.0497C255.787 68.8264 256.044 69.5949 256.269 70.3798C257.425 70.8949 258.549 71.4181 259.657 71.9413C259.32 71.1892 258.95 70.437 258.565 69.6931C257.569 69.1371 256.558 68.5893 255.514 68.0497ZM254.021 64.3216C254.294 64.9184 254.535 65.5234 254.775 66.1284C255.626 66.5536 256.477 66.9869 257.312 67.4202C256.975 66.8397 256.622 66.2511 256.253 65.6706C255.514 65.2128 254.775 64.7631 254.021 64.3216ZM252.335 60.9614C252.527 61.3048 252.72 61.6564 252.897 61.9997C253.346 62.2532 253.796 62.5066 254.246 62.7601C253.989 62.4167 253.732 62.0815 253.459 61.7463C253.089 61.4846 252.72 61.223 252.335 60.9614ZM145.508 4.91723C145.974 5.82476 146.455 6.73223 146.937 7.63976C147.772 8.06487 148.639 8.47369 149.49 8.89062C149.057 7.96679 148.623 7.05114 148.206 6.13543C147.306 5.73485 146.407 5.32604 145.508 4.91723ZM140.338 2.48089C140.803 3.29845 141.269 4.10784 141.751 4.92541C142.489 5.32604 143.244 5.71026 143.999 6.10271C143.565 5.27697 143.148 4.45122 142.746 3.63366C141.927 3.25762 141.14 2.86516 140.338 2.48089ZM135.376 -0.00446465C135.81 0.706778 136.259 1.4099 136.709 2.12121C137.319 2.47277 137.945 2.81609 138.571 3.16765C138.17 2.45635 137.769 1.74511 137.383 1.02563C136.709 0.682303 136.05 0.338919 135.376 -0.00446465ZM130.655 -2.53895C131.041 -1.95844 131.442 -1.378 131.844 -0.797556C132.309 -0.511423 132.791 -0.233408 133.257 0.0445465C132.903 -0.535898 132.55 -1.1164 132.213 -1.69685C131.683 -1.96668 131.169 -2.25282 130.655 -2.53895ZM126.191 -5.07337C126.497 -4.65644 126.802 -4.23133 127.123 -3.81434C127.412 -3.62629 127.701 -3.4383 127.99 -3.25025C127.717 -3.66718 127.444 -4.08412 127.187 -4.50111C126.85 -4.69734 126.529 -4.88539 126.191 -5.07337ZM122.049 -7.58332L122.547 -6.96198L122.723 -6.83119L122.322 -7.41981L122.049 -7.58332ZM249.348 87.1154C249.156 88.121 248.963 89.1266 248.722 90.1404C250.842 90.9171 252.993 91.6692 255.209 92.4132C255.37 91.2931 255.53 90.1731 255.626 89.0612C253.507 88.4316 251.404 87.7776 249.348 87.1154ZM250.039 82.5043C249.91 83.6325 249.766 84.7689 249.573 85.9135C251.596 86.5758 253.651 87.2217 255.739 87.8512C255.835 86.6739 255.883 85.5048 255.899 84.3438C253.989 83.7224 252.046 83.1093 250.039 82.5043ZM250.344 77.8687C250.312 79.0051 250.247 80.1497 250.151 81.2943C252.11 81.8829 254.021 82.4716 255.899 83.0766C255.883 81.9565 255.835 80.8446 255.739 79.7409C253.989 79.1032 252.19 78.4819 250.344 77.8687ZM250.296 73.3721C250.36 74.4431 250.392 75.5141 250.392 76.5933C252.174 77.1819 253.908 77.7706 255.61 78.3756C255.498 77.3291 255.337 76.2826 255.161 75.2443C253.571 74.6148 251.949 73.9934 250.296 73.3721ZM249.814 69.0226C249.958 70.0119 250.087 71.0093 250.167 72.0067C251.773 72.5872 253.33 73.1759 254.872 73.7727C254.663 72.7998 254.438 71.8433 254.165 70.8867C252.752 70.2572 251.307 69.6358 249.814 69.0226ZM248.963 64.8367C249.188 65.7278 249.38 66.6272 249.557 67.5347C250.954 68.0988 252.303 68.6629 253.635 69.227C253.346 68.3522 253.041 67.4856 252.688 66.619C251.484 66.014 250.231 65.4253 248.963 64.8367ZM247.791 60.8551C248.064 61.6237 248.321 62.4003 248.545 63.1852C249.701 63.7003 250.825 64.2235 251.933 64.7468C251.596 63.9946 251.227 63.2424 250.842 62.4985C249.846 61.9425 248.818 61.3947 247.791 60.8551ZM246.297 57.1188C246.57 57.7157 246.811 58.3207 247.052 58.9257C247.903 59.3508 248.754 59.7841 249.589 60.2175C249.252 59.6288 248.899 59.0483 248.529 58.4678C247.791 58.0182 247.052 57.5685 246.297 57.1188ZM244.595 53.7668C244.788 54.1102 244.981 54.4618 245.157 54.8051C245.607 55.0586 246.057 55.312 246.506 55.5655C246.249 55.2221 245.992 54.8869 245.719 54.5517C245.35 54.2901 244.981 54.0284 244.595 53.7668ZM143.148 0.0772618C143.613 1.06652 144.079 2.05578 144.561 3.04504C145.492 3.4865 146.455 3.91979 147.419 4.35314C146.985 3.34753 146.552 2.34191 146.15 1.34447C145.139 0.927543 144.143 0.494254 143.148 0.0772618ZM137.785 -2.28547C138.25 -1.378 138.716 -0.470529 139.214 0.437003C140.065 0.862113 140.932 1.2791 141.799 1.70421C141.365 0.780387 140.932 -0.135324 140.514 -1.05097C139.583 -1.45979 138.684 -1.86854 137.785 -2.28547ZM132.614 -4.71369C133.08 -3.89613 133.546 -3.08674 134.027 -2.26917C134.766 -1.87672 135.521 -1.48432 136.259 -1.09187C135.826 -1.91761 135.408 -2.74336 135.007 -3.56092C134.188 -3.94514 133.401 -4.32942 132.614 -4.71369ZM127.637 -7.20722C128.07 -6.49598 128.52 -5.79286 128.969 -5.08155C129.579 -4.73005 130.206 -4.38667 130.832 -4.0351C130.431 -4.74641 130.029 -5.45765 129.644 -6.16895C128.969 -6.51228 128.311 -6.8639 127.637 -7.20722ZM122.916 -9.73353C123.301 -9.15302 123.703 -8.57258 124.104 -7.99214C124.57 -7.706 125.051 -7.42799 125.517 -7.14186C125.164 -7.72236 124.811 -8.3028 124.473 -8.88325C123.944 -9.16938 123.43 -9.45558 122.916 -9.73353ZM118.452 -12.2762C118.757 -11.8592 119.062 -11.4341 119.383 -11.0171C119.672 -10.8291 119.961 -10.6411 120.25 -10.453C119.977 -10.8699 119.704 -11.2869 119.448 -11.7039C119.126 -11.8919 118.789 -12.08 118.452 -12.2762ZM114.309 -14.7861L114.807 -14.1647L114.984 -14.0339L114.582 -14.6226L114.309 -14.7861ZM240.677 84.1476C240.453 85.0142 240.228 85.8808 239.987 86.7556C242.171 87.6549 244.403 88.5298 246.683 89.3882C246.908 88.399 247.1 87.4179 247.277 86.4368C245.045 85.6928 242.845 84.9325 240.677 84.1476ZM241.609 79.9126C241.416 80.9182 241.223 81.9238 240.983 82.9376C243.102 83.7143 245.27 84.4665 247.47 85.2104C247.63 84.0904 247.791 82.9703 247.887 81.8584C245.768 81.2289 243.68 80.583 241.609 79.9126ZM242.315 75.3097C242.187 76.4379 242.042 77.5744 241.85 78.7108C243.873 79.373 245.928 80.0189 248.015 80.6484C248.112 79.4711 248.16 78.302 248.176 77.1411C246.265 76.5279 244.306 75.9147 242.315 75.3097ZM242.62 70.6659C242.588 71.8024 242.524 72.9387 242.428 74.0915C244.387 74.6802 246.297 75.2689 248.176 75.8738C248.16 74.7538 248.112 73.6419 248.016 72.5381C246.249 71.9086 244.451 71.2873 242.62 70.6659ZM242.556 66.1775C242.62 67.2485 242.652 68.3195 242.652 69.3987C244.435 69.9874 246.169 70.576 247.871 71.181C247.759 70.1345 247.598 69.088 247.421 68.0497C245.832 67.4202 244.21 66.7907 242.556 66.1775ZM242.074 61.8199C242.219 62.8091 242.347 63.7984 242.428 64.804C244.033 65.3844 245.591 65.9731 247.132 66.5699C246.924 65.597 246.699 64.6405 246.426 63.6839C245.013 63.0544 243.568 62.433 242.074 61.8199ZM241.223 57.6339C241.448 58.5251 241.641 59.4244 241.818 60.3319C243.214 60.8878 244.563 61.4601 245.896 62.0243C245.607 61.1494 245.302 60.2828 244.949 59.4162C243.744 58.8194 242.508 58.2226 241.223 57.6339ZM240.051 53.6524C240.324 54.4209 240.581 55.1976 240.806 55.9824C241.962 56.4975 243.086 57.0207 244.194 57.544C243.857 56.7918 243.487 56.0397 243.102 55.2957C242.107 54.7397 241.095 54.192 240.051 53.6524ZM238.558 49.9243C238.831 50.5211 239.072 51.1261 239.313 51.7311C240.164 52.1562 241.015 52.5896 241.85 53.0229C241.512 52.4424 241.159 51.8537 240.79 51.2732C240.051 50.8154 239.313 50.3657 238.558 49.9243ZM236.872 46.5722C237.065 46.9156 237.241 47.2672 237.434 47.6106C237.884 47.864 238.333 48.1174 238.783 48.3709C238.526 48.0275 238.269 47.6923 237.996 47.3571C237.627 47.0955 237.241 46.8339 236.872 46.5722ZM140.964 -4.85267C141.413 -3.79804 141.863 -2.73518 142.345 -1.66419C143.372 -1.21449 144.432 -0.773019 145.476 -0.331491C145.042 -1.41071 144.641 -2.48988 144.256 -3.56092C143.148 -3.98603 142.072 -4.41938 140.964 -4.85267ZM135.408 -7.1255C135.874 -6.13624 136.339 -5.14698 136.821 -4.15772C137.769 -3.71626 138.732 -3.27479 139.695 -2.84144C139.262 -3.84705 138.828 -4.85267 138.427 -5.85011C137.415 -6.26704 136.42 -6.70039 135.408 -7.1255ZM130.045 -9.48005C130.511 -8.57258 130.992 -7.66511 131.474 -6.75758C132.325 -6.33247 133.192 -5.91548 134.043 -5.49854C133.61 -6.42237 133.176 -7.33802 132.759 -8.25373C131.844 -8.65431 130.944 -9.0713 130.045 -9.48005ZM124.875 -11.9083C125.34 -11.0907 125.806 -10.2813 126.288 -9.46375C127.026 -9.0713 127.781 -8.6789 128.52 -8.28645C128.086 -9.11219 127.669 -9.93794 127.267 -10.7555C126.448 -11.1397 125.662 -11.524 124.875 -11.9083ZM119.913 -14.4019C120.347 -13.6906 120.796 -12.9793 121.246 -12.2762C121.856 -11.9246 122.482 -11.5812 123.109 -11.2297C122.707 -11.941 122.306 -12.6522 121.92 -13.3635C121.23 -13.715 120.572 -14.0585 119.913 -14.4019ZM115.176 -16.9363C115.562 -16.3558 115.963 -15.7753 116.365 -15.1867C116.83 -14.9006 117.312 -14.6226 117.778 -14.3364C117.424 -14.9169 117.071 -15.4974 116.734 -16.0778C116.22 -16.364 115.69 -16.6502 115.176 -16.9363ZM110.729 -19.4708C111.034 -19.0538 111.339 -18.6287 111.66 -18.2117C111.949 -18.0237 112.238 -17.8356 112.527 -17.6476C112.254 -18.0645 111.981 -18.4815 111.724 -18.8984C111.387 -19.0865 111.05 -19.2745 110.729 -19.4708ZM106.586 -21.9807L107.084 -21.3593L107.26 -21.2285L106.843 -21.8171L106.586 -21.9807ZM64.6773 489.505C61.0484 484.526 57.6283 479.465 54.4811 474.331C25.9801 427.991 17.9998 376.092 47.5124 332.451C71.1001 297.573 106.795 261.551 141.606 226.437C190.13 177.481 236.888 130.291 246.426 90.6146C244.114 89.7561 241.85 88.8813 239.634 87.982C227.752 126.89 182.567 172.486 135.745 219.725C100.95 254.823 65.2714 290.828 41.748 325.599C12.3959 369.004 20.3762 420.666 48.7488 466.809C53.5017 474.552 58.8486 482.139 64.6773 489.505ZM231.878 80.7792C231.653 81.4987 231.429 82.2182 231.188 82.9458C233.404 83.9677 235.684 84.9651 238.012 85.9462C238.253 85.096 238.462 84.2539 238.654 83.4118C236.358 82.5533 234.094 81.6786 231.878 80.7792ZM232.954 76.953C232.745 77.8196 232.504 78.6862 232.264 79.561C234.447 80.4604 236.679 81.3352 238.959 82.1936C239.184 81.2044 239.377 80.2233 239.553 79.2422C237.306 78.4982 235.106 77.7297 232.954 76.953ZM233.885 72.718C233.693 73.7236 233.5 74.7292 233.259 75.743C235.379 76.5197 237.53 77.28 239.746 78.0158C239.923 76.8958 240.067 75.7757 240.164 74.6638C238.028 74.0343 235.941 73.3803 233.885 72.718ZM234.576 68.107C234.447 69.2352 234.303 70.3716 234.11 71.5162C236.133 72.1784 238.189 72.8243 240.276 73.4539C240.372 72.2765 240.421 71.1074 240.437 69.9465C238.526 69.3251 236.567 68.712 234.576 68.107ZM234.881 63.4713C234.849 64.6078 234.785 65.7523 234.688 66.8969C236.647 67.4856 238.558 68.0743 240.437 68.6793C240.421 67.5592 240.372 66.4473 240.276 65.3436C238.51 64.7059 236.711 64.0845 234.881 63.4713ZM234.817 58.9747C234.881 60.0457 234.913 61.1168 234.913 62.1959C236.695 62.7846 238.429 63.3733 240.132 63.9783C240.019 62.9318 239.859 61.8853 239.682 60.8469C238.108 60.2174 236.487 59.5961 234.817 58.9747ZM234.351 54.6253C234.496 55.6145 234.624 56.612 234.704 57.6094C236.31 58.1898 237.868 58.7785 239.409 59.3753C239.2 58.4024 238.975 57.4459 238.702 56.4893C237.273 55.8598 235.828 55.2384 234.351 54.6253ZM233.5 50.4394C233.725 51.3305 233.918 52.2298 234.094 53.1373C235.491 53.6933 236.84 54.2574 238.173 54.8296C237.884 53.9549 237.578 53.0883 237.225 52.2216C236.005 51.6166 234.769 51.028 233.5 50.4394ZM232.312 46.4578C232.585 47.2345 232.842 48.003 233.066 48.7879C234.223 49.3029 235.347 49.8262 236.454 50.3494C236.117 49.5973 235.748 48.8451 235.363 48.1011C234.367 47.5452 233.355 46.9974 232.312 46.4578ZM230.819 42.7297C231.091 43.3265 231.332 43.9315 231.573 44.5365C232.424 44.9616 233.275 45.395 234.11 45.8283C233.773 45.2478 233.42 44.6591 233.05 44.0787C232.312 43.6208 231.573 43.1712 230.819 42.7297ZM229.133 39.3695C229.325 39.7129 229.518 40.0644 229.695 40.4078C230.144 40.6612 230.594 40.9147 231.043 41.1681C230.786 40.8248 230.529 40.4896 230.257 40.1544C229.887 39.8927 229.502 39.6311 229.133 39.3695ZM138.989 -9.86433C139.406 -8.74427 139.856 -7.60786 140.306 -6.47144C141.43 -6.0218 142.554 -5.57215 143.71 -5.13062C143.308 -6.28339 142.923 -7.42799 142.553 -8.5644C141.333 -8.98957 140.161 -9.43104 138.989 -9.86433ZM133.24 -12.0473C133.69 -10.9926 134.14 -9.92976 134.621 -8.85877C135.665 -8.40907 136.725 -7.95942 137.785 -7.51789C137.351 -8.59712 136.95 -9.67628 136.564 -10.7473C135.424 -11.1806 134.332 -11.614 133.24 -12.0473ZM127.685 -14.3201C128.15 -13.3308 128.616 -12.3416 129.098 -11.3523C130.045 -10.9108 131.009 -10.4775 131.972 -10.036C131.538 -11.0416 131.105 -12.0473 130.703 -13.0447C129.676 -13.4616 128.68 -13.895 127.685 -14.3201ZM122.306 -16.6746C122.771 -15.7672 123.237 -14.8597 123.735 -13.9522C124.586 -13.527 125.453 -13.1101 126.304 -12.6931C125.87 -13.617 125.437 -14.5326 125.019 -15.4483C124.12 -15.8571 123.221 -16.2659 122.306 -16.6746ZM117.135 -19.111C117.601 -18.2935 118.067 -17.4841 118.548 -16.6665C119.287 -16.2741 120.042 -15.8816 120.78 -15.4892C120.347 -16.315 119.929 -17.1407 119.528 -17.9583C118.725 -18.3343 117.922 -18.7268 117.135 -19.111ZM112.174 -21.6046C112.607 -20.8933 113.057 -20.1902 113.506 -19.479C114.117 -19.1274 114.743 -18.7839 115.369 -18.4324C114.968 -19.1437 114.566 -19.855 114.181 -20.5745C113.506 -20.9097 112.832 -21.2531 112.174 -21.6046ZM107.453 -24.1309C107.838 -23.5504 108.24 -22.9699 108.641 -22.3895C109.107 -22.1033 109.589 -21.8253 110.054 -21.5392C109.701 -22.1196 109.348 -22.7001 109.011 -23.2806C108.481 -23.5668 107.967 -23.8447 107.453 -24.1309ZM102.989 -26.6654C103.294 -26.2484 103.599 -25.8233 103.92 -25.4063C104.21 -25.2183 104.499 -25.0302 104.788 -24.8422C104.515 -25.2591 104.242 -25.6761 103.985 -26.093C103.648 -26.2893 103.31 -26.4773 102.989 -26.6654ZM98.8465 -29.1753L99.3443 -28.5539L99.5209 -28.4231L99.1034 -29.0118L98.8465 -29.1753ZM56.9218 482.294C53.2929 477.323 49.8888 472.263 46.7417 467.136C18.2406 420.797 10.2603 368.898 39.773 325.256C63.3606 290.379 99.0552 254.357 133.867 219.242C180.865 171.823 226.21 126.064 237.675 87.1808C235.331 86.2079 233.034 85.2104 230.786 84.1885C217.395 122.336 173.479 166.665 128.022 212.53C93.2265 247.628 57.548 283.634 34.0407 318.405C4.65647 361.809 12.6368 413.471 41.0094 459.615C45.7622 467.349 51.0931 474.928 56.9218 482.294ZM223.031 76.9857C222.838 77.5498 222.646 78.114 222.437 78.6863C224.669 79.8309 226.949 80.9591 229.293 82.0628C229.518 81.3679 229.727 80.6729 229.935 79.978C227.575 79.0051 225.279 77.9995 223.031 76.9857ZM224.155 73.5847C223.93 74.3041 223.705 75.0236 223.464 75.743C225.68 76.765 227.96 77.7624 230.289 78.7435C230.529 77.8932 230.738 77.0511 230.931 76.2172C228.635 75.3588 226.371 74.484 224.155 73.5847ZM225.215 69.7584C224.99 70.6251 224.765 71.4917 224.524 72.3664C226.708 73.2658 228.94 74.1406 231.22 74.999C231.445 74.0098 231.637 73.0287 231.814 72.0476C229.566 71.2955 227.366 70.5351 225.215 69.7584ZM226.146 65.5235C225.953 66.529 225.761 67.5347 225.52 68.5485C227.639 69.3251 229.791 70.0773 232.007 70.8213C232.167 69.7012 232.328 68.5811 232.424 67.4692C230.289 66.8315 228.201 66.1857 226.146 65.5235ZM226.836 60.9124C226.708 62.0406 226.563 63.177 226.371 64.3134C228.394 64.9756 230.449 65.6215 232.537 66.2511C232.633 65.0738 232.681 63.9047 232.697 62.7437C230.786 62.1305 228.844 61.5174 226.836 60.9124ZM227.141 56.2686C227.109 57.405 227.045 58.5496 226.949 59.6942C228.908 60.2828 230.819 60.8715 232.697 61.4765C232.681 60.3564 232.633 59.2445 232.537 58.1408C230.786 57.5113 228.988 56.8899 227.141 56.2686ZM227.077 51.7801C227.141 52.8512 227.174 53.9222 227.174 55.0014C228.956 55.59 230.69 56.1787 232.392 56.7837C232.28 55.7372 232.119 54.6907 231.942 53.6524C230.369 53.0229 228.747 52.3933 227.077 51.7801ZM226.612 47.4225C226.756 48.4118 226.885 49.4092 226.965 50.4067C228.571 50.9871 230.128 51.5757 231.67 52.1726C231.461 51.1997 231.236 50.2431 230.963 49.2866C229.55 48.657 228.089 48.0439 226.612 47.4225ZM225.761 43.2366C225.985 44.1277 226.178 45.0271 226.355 45.9346C227.752 46.4987 229.1 47.0628 230.433 47.6269C230.144 46.7521 229.839 45.8855 229.486 45.0189C228.282 44.4221 227.029 43.8252 225.761 43.2366ZM224.572 39.255C224.845 40.0235 225.102 40.8002 225.327 41.5851C226.483 42.1002 227.607 42.6234 228.715 43.1466C228.378 42.3945 228.009 41.6423 227.623 40.8983C226.644 40.3506 225.616 39.8028 224.572 39.255ZM223.095 35.5269C223.368 36.1238 223.609 36.7288 223.85 37.3337C224.701 37.7589 225.552 38.1922 226.387 38.6255C226.05 38.0369 225.696 37.4564 225.327 36.8759C224.572 36.4181 223.834 35.9766 223.095 35.5269ZM221.393 32.1749C221.586 32.5183 221.778 32.8698 221.955 33.2132C222.405 33.4667 222.854 33.7201 223.304 33.9736C223.047 33.6302 222.79 33.295 222.517 32.9598C222.148 32.6981 221.778 32.4365 221.393 32.1749ZM137.174 -14.966C137.56 -13.7805 137.977 -12.5869 138.411 -11.385C139.615 -10.9354 140.835 -10.4938 142.056 -10.0524C141.67 -11.2705 141.317 -12.4805 140.98 -13.6742C139.695 -14.0993 138.443 -14.5408 137.174 -14.966ZM131.249 -17.0589C131.667 -15.9389 132.116 -14.8024 132.566 -13.666C133.69 -13.2082 134.83 -12.7667 135.986 -12.317C135.585 -13.4698 135.199 -14.6144 134.83 -15.7508C133.61 -16.1842 132.438 -16.6256 131.249 -17.0589ZM125.501 -19.2418C125.951 -18.1872 126.4 -17.1243 126.882 -16.0534C127.926 -15.6036 128.969 -15.154 130.029 -14.7125C129.596 -15.7917 129.194 -16.8709 128.809 -17.9419C127.685 -18.3752 126.609 -18.8085 125.501 -19.2418ZM119.945 -21.5147C120.411 -20.5254 120.877 -19.5361 121.358 -18.5469C122.306 -18.1054 123.269 -17.6721 124.233 -17.2306C123.799 -18.2362 123.365 -19.2418 122.964 -20.2393C121.952 -20.6644 120.957 -21.0895 119.945 -21.5147ZM114.582 -23.8774C115.048 -22.9699 115.53 -22.0624 116.011 -21.1549C116.862 -20.7298 117.729 -20.3129 118.58 -19.8877C118.147 -20.8115 117.713 -21.7272 117.296 -22.6429C116.381 -23.0516 115.482 -23.4686 114.582 -23.8774ZM109.396 -26.3056C109.862 -25.488 110.327 -24.6787 110.809 -23.8611C111.548 -23.4605 112.302 -23.0762 113.057 -22.6838C112.623 -23.5095 112.206 -24.3353 111.804 -25.1528C110.986 -25.5371 110.199 -25.9213 109.396 -26.3056ZM104.434 -28.7992C104.868 -28.0879 105.317 -27.3848 105.767 -26.6735C106.377 -26.322 107.003 -25.9786 107.63 -25.627C107.228 -26.3383 106.827 -27.0577 106.441 -27.7691C105.767 -28.1043 105.109 -28.4558 104.434 -28.7992ZM99.7136 -31.3336C100.099 -30.7532 100.5 -30.1727 100.902 -29.5922C101.367 -29.306 101.849 -29.0281 102.315 -28.742C101.962 -29.3224 101.608 -29.9029 101.271 -30.4834C100.741 -30.7614 100.227 -31.0475 99.7136 -31.3336ZM95.2497 -33.8681C95.5548 -33.4511 95.8599 -33.026 96.1811 -32.6091C96.4701 -32.421 96.7591 -32.2329 97.0481 -32.0449C96.7751 -32.4619 96.5022 -32.8789 96.2453 -33.2958C95.9081 -33.4838 95.5869 -33.6719 95.2497 -33.8681ZM91.1071 -36.378L91.6048 -35.7567L91.7814 -35.6259L91.38 -36.2145L91.1071 -36.378ZM49.1984 475.108C45.5695 470.129 42.1494 465.068 39.0022 459.934C10.5012 413.594 2.52088 361.695 32.0335 318.053C55.6212 283.176 91.3158 247.154 126.127 212.039C171.793 165.97 215.886 121.47 228.876 83.3137C226.515 82.21 224.203 81.0899 221.955 79.9453C207.407 117.423 164.568 160.647 120.283 205.335C85.4871 240.434 49.8086 276.439 26.3012 311.21C-3.05087 354.615 4.92942 406.277 33.302 452.42C38.0388 460.163 43.3697 467.741 49.1984 475.108ZM110.311 531.634L110.183 531.553L110.729 532.247L110.777 532.288L110.311 531.634ZM214.216 72.7344L213.75 73.9198C215.966 75.2034 218.23 76.4707 220.574 77.7052C220.767 77.1738 220.96 76.6424 221.136 76.1109C218.76 75.0072 216.464 73.8871 214.216 72.7344ZM215.291 69.783C215.099 70.3471 214.906 70.903 214.697 71.4753C216.929 72.6281 219.209 73.7482 221.554 74.8519C221.778 74.1569 221.987 73.462 222.18 72.7752C219.836 71.8023 217.539 70.8049 215.291 69.783ZM216.415 66.3819C216.191 67.1013 215.966 67.8208 215.725 68.5402C217.941 69.5622 220.221 70.5597 222.549 71.5407C222.79 70.6905 222.999 69.8565 223.191 69.0144C220.895 68.156 218.631 67.2812 216.415 66.3819ZM217.475 62.5557C217.25 63.4223 217.026 64.2889 216.785 65.1637C218.968 66.063 221.2 66.9378 223.48 67.7963C223.705 66.807 223.898 65.8259 224.075 64.8448C221.843 64.1009 219.643 63.3405 217.475 62.5557ZM218.406 58.3207C218.214 59.3263 218.021 60.3319 217.78 61.3457C219.9 62.1224 222.067 62.8745 224.267 63.6185C224.444 62.4984 224.588 61.3784 224.685 60.2665C222.565 59.637 220.478 58.9911 218.406 58.3207ZM219.113 53.7178C218.985 54.846 218.84 55.9824 218.647 57.1188C220.671 57.7811 222.726 58.427 224.813 59.0565C224.91 57.8792 224.958 56.7101 224.974 55.5491C223.047 54.9278 221.104 54.3146 219.113 53.7178ZM219.418 49.074C219.386 50.2104 219.322 51.3468 219.225 52.4996C221.184 53.0883 223.095 53.6769 224.974 54.2819C224.958 53.1619 224.91 52.0499 224.813 50.9462C223.047 50.3167 221.249 49.6872 219.418 49.074ZM219.354 44.5856C219.418 45.6566 219.45 46.7276 219.45 47.8068C221.233 48.3954 222.967 48.9841 224.669 49.5891C224.556 48.5426 224.396 47.4961 224.219 46.4578C222.629 45.8201 221.008 45.1988 219.354 44.5856ZM218.872 40.228C219.017 41.2172 219.145 42.2065 219.225 43.2121C220.831 43.7925 222.389 44.3812 223.93 44.978C223.721 44.0051 223.497 43.0485 223.224 42.092C221.811 41.4625 220.365 40.8411 218.872 40.228ZM218.021 36.042C218.246 36.9332 218.439 37.8325 218.615 38.74C220.012 39.2959 221.361 39.8682 222.694 40.4323C222.405 39.5576 222.1 38.6909 221.746 37.8243C220.542 37.2275 219.306 36.6306 218.021 36.042ZM216.849 32.0604C217.122 32.8289 217.379 33.6056 217.604 34.3905C218.76 34.9056 219.884 35.4288 220.992 35.9521C220.654 35.1999 220.285 34.4477 219.9 33.7038C218.904 33.1478 217.893 32.6 216.849 32.0604ZM215.356 28.3324C215.629 28.9292 215.869 29.5342 216.11 30.1392C216.961 30.5643 217.812 30.9976 218.647 31.4309C218.31 30.8505 217.957 30.2618 217.588 29.6814C216.849 29.2235 216.11 28.7739 215.356 28.3324ZM213.67 24.9803C213.862 25.3237 214.039 25.6753 214.232 26.0186C214.681 26.2721 215.131 26.5255 215.58 26.779C215.324 26.4356 215.067 26.1004 214.794 25.7652C214.408 25.4954 214.039 25.242 213.67 24.9803ZM135.569 -20.1657C135.922 -18.923 136.307 -17.6721 136.709 -16.413C137.977 -15.9716 139.278 -15.5383 140.595 -15.1049C140.241 -16.3886 139.92 -17.6558 139.615 -18.9148C138.234 -19.3236 136.901 -19.7405 135.569 -20.1657ZM129.451 -22.1605C129.836 -20.975 130.254 -19.7814 130.687 -18.5878C131.892 -18.1381 133.112 -17.6966 134.348 -17.2551C133.963 -18.4733 133.61 -19.6834 133.273 -20.877C131.972 -21.294 130.72 -21.7272 129.451 -22.1605ZM123.51 -24.2535C123.927 -23.1334 124.377 -21.997 124.827 -20.8606C125.951 -20.4028 127.091 -19.9613 128.231 -19.5198C127.829 -20.6726 127.444 -21.8171 127.075 -22.9536C125.87 -23.3869 124.698 -23.8202 123.51 -24.2535ZM117.778 -26.4446C118.227 -25.3899 118.677 -24.3189 119.159 -23.2561C120.202 -22.8064 121.246 -22.3568 122.306 -21.9152C121.872 -22.9945 121.471 -24.0736 121.085 -25.1447C119.961 -25.5698 118.87 -26.0112 117.778 -26.4446ZM112.206 -28.7174C112.672 -27.7282 113.137 -26.7389 113.619 -25.7496C114.566 -25.3082 115.53 -24.8749 116.493 -24.4334C116.06 -25.439 115.626 -26.4446 115.225 -27.442C114.213 -27.859 113.217 -28.2923 112.206 -28.7174ZM106.843 -31.072C107.308 -30.1645 107.774 -29.257 108.272 -28.3495C109.123 -27.9244 109.99 -27.5075 110.857 -27.0823C110.424 -28.0062 109.99 -28.9218 109.573 -29.8375C108.641 -30.2462 107.742 -30.6632 106.843 -31.072ZM101.673 -33.5084C102.138 -32.6908 102.604 -31.8814 103.086 -31.0638C103.824 -30.6632 104.579 -30.2789 105.334 -29.8865C104.9 -30.7123 104.482 -31.538 104.081 -32.3556C103.246 -32.7317 102.459 -33.1159 101.673 -33.5084ZM96.7109 -36.002C97.1445 -35.2907 97.5941 -34.5875 98.0436 -33.8763C98.6538 -33.5247 99.28 -33.1813 99.9063 -32.8298C99.5048 -33.541 99.1034 -34.2523 98.718 -34.9636C98.0276 -35.307 97.3693 -35.6504 96.7109 -36.002ZM91.9741 -38.5282C92.3595 -37.9478 92.7609 -37.3673 93.1623 -36.7868C93.628 -36.5006 94.1097 -36.2227 94.5754 -35.9365C94.2221 -36.517 93.8689 -37.0975 93.5317 -37.678C93.0018 -37.9559 92.4879 -38.2421 91.9741 -38.5282ZM87.5264 -41.0627C87.8314 -40.6457 88.1365 -40.2206 88.4577 -39.8037C88.7467 -39.6156 89.0357 -39.4275 89.3247 -39.2395C89.0518 -39.6564 88.7788 -40.0734 88.5219 -40.4904C88.1847 -40.6866 87.8475 -40.8746 87.5264 -41.0627ZM83.3676 -43.5726L83.8654 -42.9512L84.042 -42.8204L83.6406 -43.4091L83.3676 -43.5726ZM41.475 467.913C37.8301 462.934 34.426 457.865 31.2628 452.739C2.76172 406.399 -5.21856 354.5 24.2941 310.859C47.8818 275.981 83.5763 239.959 118.388 204.845C162.914 159.928 205.946 116.507 220.109 78.9969C217.748 77.7624 215.452 76.5034 213.22 75.2279C197.789 112.125 155.849 154.434 112.527 198.141C77.7316 233.239 42.0531 269.245 18.5296 304.016C-10.8224 347.42 -2.84213 399.082 25.5305 445.226C30.2994 452.96 35.6464 460.547 41.475 467.913ZM102.572 524.432L102.443 524.35L102.989 525.045L103.037 525.086L102.572 524.432ZM107.308 527.383L106.73 527.031L107.549 528.119L108.063 528.462L107.308 527.383ZM112.142 530.261L111.146 529.68L112.174 531.119L113.073 531.692L112.142 530.261ZM103.423 522.478L104.45 523.916L103.423 522.478ZM104.45 523.916L105.35 524.489L104.402 523.058M205.481 68.017C205.384 68.2296 205.304 68.4421 205.208 68.6547C207.391 70.0854 209.623 71.4835 211.952 72.8652C212.096 72.5055 212.241 72.1457 212.385 71.786C210.009 70.5597 207.713 69.3006 205.481 68.017ZM206.476 65.5398L206.011 66.7171C208.226 68.0007 210.49 69.2679 212.835 70.5024C213.027 69.971 213.22 69.4396 213.397 68.9163C211.036 67.8126 208.724 66.6844 206.476 65.5398ZM207.568 62.5884C207.375 63.1525 207.183 63.7084 206.974 64.2807C209.206 65.4335 211.486 66.5536 213.83 67.6573C214.055 66.9624 214.264 66.2756 214.456 65.5807C212.112 64.6078 209.816 63.6103 207.568 62.5884ZM208.676 59.1873C208.451 59.9068 208.226 60.6262 207.986 61.3457C210.201 62.3676 212.481 63.3651 214.81 64.3462C215.051 63.4959 215.259 62.6538 215.452 61.8198C213.156 60.9614 210.892 60.0866 208.676 59.1873ZM209.752 55.3611C209.527 56.2277 209.302 57.0944 209.061 57.9691C211.245 58.8685 213.477 59.7432 215.757 60.6017C215.982 59.6124 216.175 58.6313 216.351 57.6503C214.103 56.9063 211.903 56.1378 209.752 55.3611ZM210.683 51.1261C210.49 52.1317 210.298 53.1373 210.057 54.1511C212.176 54.9278 214.328 55.6799 216.544 56.4239C216.721 55.3039 216.865 54.1838 216.977 53.0719C214.826 52.4424 212.738 51.7883 210.683 51.1261ZM211.374 46.515C211.245 47.6433 211.101 48.7797 210.908 49.9161C212.931 50.5783 214.986 51.2242 217.074 51.8537C217.17 50.6764 217.218 49.5073 217.234 48.3464C215.324 47.7332 213.365 47.12 211.374 46.515ZM211.679 41.8794C211.647 43.0158 211.582 44.1604 211.486 45.305C213.445 45.8937 215.356 46.4823 217.234 47.0873C217.218 45.9673 217.17 44.8553 217.074 43.7516C215.308 43.1139 213.509 42.4926 211.679 41.8794ZM211.614 37.3828C211.679 38.4538 211.711 39.5248 211.711 40.604C213.493 41.1927 215.227 41.7813 216.929 42.3863C216.817 41.3317 216.656 40.2933 216.48 39.255C214.89 38.6255 213.284 38.0041 211.614 37.3828ZM211.149 33.0334C211.293 34.0226 211.422 35.0201 211.502 36.0175C213.108 36.598 214.665 37.1866 216.207 37.7834C215.998 36.8105 215.773 35.854 215.5 34.8974C214.071 34.2679 212.626 33.6465 211.149 33.0334ZM210.298 28.8392C210.523 29.7304 210.715 30.6297 210.892 31.5372C212.289 32.0932 213.638 32.6573 214.97 33.2296C214.681 32.3548 214.376 31.4882 214.023 30.6215C212.803 30.0247 211.566 29.4279 210.298 28.8392ZM209.11 24.8577C209.382 25.6344 209.639 26.4029 209.864 27.1878C211.02 27.7028 212.144 28.2261 213.252 28.7493C212.915 27.9971 212.546 27.245 212.16 26.501C211.165 25.9532 210.153 25.4055 209.11 24.8577ZM207.616 21.1296C207.889 21.7264 208.13 22.3314 208.371 22.9364C209.222 23.3616 210.073 23.7949 210.908 24.2282C210.571 23.6477 210.217 23.059 209.848 22.4786C209.11 22.0289 208.371 21.5793 207.616 21.1296ZM205.93 17.7776C206.123 18.121 206.316 18.4725 206.492 18.8159C206.942 19.0693 207.391 19.3228 207.841 19.5762C207.584 19.2328 207.327 18.8976 207.054 18.5624C206.685 18.3008 206.3 18.0392 205.93 17.7776ZM134.14 -25.4063C134.461 -24.1309 134.798 -22.8391 135.167 -21.5392C136.516 -21.1058 137.897 -20.6889 139.278 -20.2638C138.973 -21.5556 138.7 -22.8228 138.443 -24.0818C137.046 -24.5314 135.585 -24.973 134.14 -25.4063ZM127.829 -27.3602C128.183 -26.1176 128.568 -24.8667 128.969 -23.6076C130.254 -23.1661 131.554 -22.7329 132.871 -22.2995C132.518 -23.5831 132.197 -24.8504 131.892 -26.1094C130.511 -26.5182 129.178 -26.9351 127.829 -27.3602ZM121.712 -29.3633C122.097 -28.1778 122.514 -26.9841 122.948 -25.7905C124.152 -25.3408 125.373 -24.8994 126.609 -24.4579C126.224 -25.6761 125.87 -26.8861 125.533 -28.0797C124.233 -28.4967 122.98 -28.93 121.712 -29.3633ZM115.787 -31.4562C116.204 -30.3362 116.654 -29.1998 117.103 -28.0634C118.227 -27.6055 119.367 -27.1641 120.507 -26.7226C120.106 -27.8753 119.721 -29.0199 119.351 -30.1564C118.147 -30.5815 116.959 -31.023 115.787 -31.4562ZM110.038 -33.6392C110.488 -32.5763 110.937 -31.5217 111.419 -30.4506C112.463 -30.001 113.506 -29.5513 114.566 -29.1099C114.133 -30.189 113.731 -31.2682 113.346 -32.3392C112.222 -32.7725 111.13 -33.2058 110.038 -33.6392ZM104.482 -35.912C104.948 -34.9227 105.414 -33.9335 105.896 -32.9442C106.843 -32.5028 107.806 -32.0613 108.77 -31.628C108.336 -32.6336 107.903 -33.6392 107.501 -34.6366C106.474 -35.0617 105.478 -35.4869 104.482 -35.912ZM99.1034 -38.2748C99.5691 -37.3673 100.035 -36.4598 100.532 -35.5523C101.383 -35.1271 102.251 -34.7102 103.102 -34.2932C102.668 -35.2171 102.235 -36.1328 101.817 -37.0484C100.918 -37.449 100.019 -37.8578 99.1034 -38.2748ZM93.9331 -40.703C94.3987 -39.8854 94.8644 -39.076 95.3461 -38.2584C96.0847 -37.8578 96.8394 -37.4735 97.578 -37.0811C97.1445 -37.9069 96.727 -38.7326 96.3256 -39.5502C95.5227 -39.9345 94.7199 -40.3187 93.9331 -40.703ZM88.9715 -43.1965C89.405 -42.4852 89.8546 -41.7821 90.3042 -41.0709C90.9144 -40.7193 91.5406 -40.3759 92.1668 -40.0244C91.7654 -40.7356 91.364 -41.4469 90.9786 -42.1582C90.3042 -42.5016 89.6298 -42.8532 88.9715 -43.1965ZM84.2347 -45.731C84.6201 -45.1505 85.0215 -44.57 85.4229 -43.9814C85.8885 -43.6952 86.3703 -43.4172 86.8359 -43.1393C86.4827 -43.7197 86.1294 -44.3002 85.7922 -44.8807C85.2784 -45.1586 84.7485 -45.4448 84.2347 -45.731ZM79.7869 -48.2655C80.092 -47.8485 80.3971 -47.4234 80.7182 -47.0064C81.0072 -46.8183 81.2963 -46.6303 81.5853 -46.4423C81.3123 -46.8592 81.0394 -47.2762 80.7824 -47.6931C80.4452 -47.8812 80.108 -48.0692 79.7869 -48.2655ZM75.6442 -50.7753L76.142 -50.154L76.3186 -50.0314L75.9172 -50.62L75.6442 -50.7753ZM94.8322 517.237L94.7038 517.155L95.2497 517.85L95.2979 517.891L94.8322 517.237ZM99.569 520.18L98.991 519.829L99.8099 520.916L100.324 521.259L99.569 520.18ZM109.316 525.854L107.983 525.11C108.368 525.691 108.77 526.279 109.171 526.86L110.424 527.612C110.054 527.031 109.685 526.443 109.316 525.854ZM114.341 528.585C113.795 528.29 113.233 528.004 112.688 527.71C113.121 528.389 113.555 529.059 113.988 529.729C114.502 530.032 115.032 530.326 115.546 530.629C115.16 529.942 114.743 529.263 114.341 528.585ZM196.89 62.7928L196.874 62.8418C198.994 64.4197 201.209 65.9813 203.49 67.5101L203.698 66.9787C201.354 65.6052 199.09 64.2072 196.89 62.7928ZM197.757 60.8224C197.677 61.0268 197.581 61.2394 197.484 61.4438C199.668 62.8745 201.9 64.2726 204.228 65.6543C204.373 65.3027 204.517 64.943 204.646 64.5914C202.285 63.3569 199.989 62.106 197.757 60.8224ZM198.737 58.3371L198.271 59.5143C200.487 60.7979 202.751 62.0651 205.095 63.2996C205.288 62.7682 205.481 62.2368 205.657 61.7136C203.297 60.6099 200.985 59.4898 198.737 58.3371ZM199.829 55.3938C199.636 55.9579 199.443 56.522 199.235 57.0861C201.466 58.2389 203.747 59.359 206.091 60.4627C206.316 59.7678 206.524 59.0728 206.717 58.3861C204.373 57.405 202.077 56.4076 199.829 55.3938ZM200.953 51.9927C200.728 52.7122 200.503 53.4316 200.262 54.1511C202.478 55.1731 204.758 56.1705 207.086 57.1516C207.327 56.3013 207.536 55.4592 207.729 54.6253C205.416 53.7668 203.168 52.8921 200.953 51.9927ZM202.012 48.1583C201.788 49.025 201.563 49.8916 201.322 50.7664C203.506 51.6657 205.738 52.5405 208.018 53.3989C208.242 52.4097 208.435 51.4286 208.612 50.4475C206.364 49.7035 204.164 48.9432 202.012 48.1583ZM202.944 43.9315C202.751 44.9371 202.558 45.9427 202.317 46.9565C204.437 47.7332 206.589 48.4853 208.804 49.2293C208.965 48.1093 209.126 46.9892 209.222 45.8773C207.086 45.2396 204.999 44.5937 202.944 43.9315ZM203.634 39.3205C203.506 40.4487 203.361 41.5851 203.168 42.7215C205.192 43.3838 207.247 44.0296 209.334 44.6591C209.431 43.4818 209.479 42.3127 209.495 41.1518C207.584 40.5386 205.641 39.9254 203.634 39.3205ZM203.939 34.6767C203.907 35.8131 203.843 36.9577 203.746 38.1023C205.705 38.6909 207.616 39.2796 209.495 39.8846C209.479 38.7645 209.431 37.6526 209.334 36.5489C207.568 35.9194 205.786 35.2898 203.939 34.6767ZM203.875 30.1882C203.939 31.2592 203.971 32.3302 203.971 33.4094C205.754 33.9981 207.488 34.5868 209.19 35.1917C209.077 34.1453 208.917 33.0987 208.74 32.0604C207.167 31.4309 205.545 30.8014 203.875 30.1882ZM203.409 25.8306C203.554 26.8199 203.682 27.8173 203.763 28.8147C205.368 29.3952 206.926 29.9839 208.467 30.5807C208.259 29.6078 208.034 28.6512 207.761 27.6946C206.348 27.0651 204.887 26.4438 203.409 25.8306ZM202.558 21.6446C202.783 22.5358 202.976 23.4351 203.152 24.3426C204.549 24.9067 205.898 25.4709 207.231 26.035C206.942 25.1602 206.637 24.2936 206.284 23.427C205.079 22.8302 203.827 22.2333 202.558 21.6446ZM201.37 17.6631C201.643 18.4316 201.9 19.2083 202.125 19.9932C203.281 20.5082 204.405 21.0315 205.513 21.5547C205.176 20.8025 204.806 20.0504 204.421 19.3064C203.441 18.7505 202.414 18.2028 201.37 17.6631ZM199.893 13.935C200.166 14.5319 200.407 15.1368 200.648 15.7419C201.499 16.167 202.35 16.6003 203.185 17.0336C202.847 16.4531 202.494 15.8645 202.125 15.284C201.37 14.8262 200.631 14.3765 199.893 13.935ZM198.191 10.583C198.383 10.9264 198.576 11.2779 198.753 11.6213C199.202 11.8747 199.652 12.1282 200.102 12.3816C199.845 12.0383 199.588 11.7031 199.315 11.3679C198.945 11.0981 198.576 10.8446 198.191 10.583ZM132.968 -30.5406C133.224 -29.2979 133.513 -28.0388 133.819 -26.7634C135.296 -26.322 136.741 -25.8723 138.186 -25.4226C137.945 -26.6408 137.736 -27.8345 137.528 -29.0118C136.034 -29.5268 134.493 -30.0337 132.968 -30.5406ZM126.416 -32.6091C126.737 -31.3336 127.075 -30.0419 127.444 -28.742C128.793 -28.3086 130.19 -27.8835 131.571 -27.4665C131.265 -28.7583 130.993 -30.0255 130.736 -31.2846C129.323 -31.7261 127.861 -32.1676 126.416 -32.6091ZM120.09 -34.5548C120.443 -33.3121 120.828 -32.0613 121.23 -30.8022C122.514 -30.3607 123.815 -29.9274 125.116 -29.4941C124.762 -30.7777 124.441 -32.0449 124.136 -33.304C122.771 -33.7128 121.439 -34.1379 120.09 -34.5548ZM113.972 -36.5579C114.358 -35.3724 114.775 -34.1787 115.209 -32.9851C116.413 -32.5354 117.633 -32.0939 118.87 -31.6525C118.484 -32.8707 118.131 -34.0806 117.794 -35.2743C116.509 -35.6912 115.241 -36.1246 113.972 -36.5579ZM108.047 -38.6508C108.465 -37.5308 108.914 -36.3944 109.364 -35.2579C110.488 -34.8001 111.628 -34.3587 112.768 -33.9089C112.366 -35.0617 111.981 -36.2063 111.612 -37.3427C110.407 -37.7761 109.235 -38.2175 108.047 -38.6508ZM102.299 -40.8419C102.748 -39.7872 103.198 -38.7163 103.68 -37.6534C104.723 -37.2037 105.767 -36.7541 106.827 -36.3126C106.393 -37.3918 105.992 -38.471 105.606 -39.542C104.482 -39.9671 103.391 -40.4086 102.299 -40.8419ZM96.7431 -43.1148C97.2087 -42.1255 97.6743 -41.1362 98.156 -40.147C99.1034 -39.7055 100.067 -39.2722 101.03 -38.8307C100.597 -39.8363 100.163 -40.8419 99.7617 -41.8394C98.7501 -42.2563 97.7546 -42.6896 96.7431 -43.1148ZM91.38 -45.4694C91.8457 -44.5618 92.3274 -43.6544 92.8091 -42.7469C93.6601 -42.3217 94.5272 -41.9047 95.3782 -41.4878C94.9447 -42.4116 94.5111 -43.3273 94.0937 -44.243C93.1784 -44.6436 92.2792 -45.0606 91.38 -45.4694ZM86.1936 -47.8975C86.6593 -47.08 87.1249 -46.2706 87.6066 -45.453C88.3453 -45.0606 89.0999 -44.6681 89.8386 -44.2757C89.405 -45.1015 88.9875 -45.919 88.5861 -46.7448C87.7833 -47.129 86.9965 -47.5133 86.1936 -47.8975ZM81.232 -50.3992C81.6656 -49.688 82.1152 -48.9849 82.5648 -48.2736C83.1749 -47.922 83.8011 -47.5787 84.4274 -47.2271C84.0259 -47.9384 83.6245 -48.6497 83.2391 -49.361C82.5648 -49.7044 81.8903 -50.0477 81.232 -50.3992ZM76.5113 -52.9255C76.8967 -52.3451 77.2981 -51.7646 77.6995 -51.176C78.1652 -50.8898 78.6469 -50.6118 79.1125 -50.3339C78.7593 -50.9143 78.406 -51.4948 78.0688 -52.0753C77.5389 -52.3532 77.0251 -52.6394 76.5113 -52.9255ZM72.0475 -55.46C72.3525 -55.043 72.6576 -54.6179 72.9788 -54.2009C73.2678 -54.0129 73.5568 -53.8249 73.8458 -53.6369C73.5729 -54.0538 73.2999 -54.4708 73.043 -54.8877C72.7058 -55.0839 72.3847 -55.272 72.0475 -55.46ZM67.9047 -57.9699L68.4026 -57.3486L68.5792 -57.2178L68.1777 -57.8064L67.9047 -57.9699ZM87.1089 510.034L86.9804 509.952L87.5263 510.647L87.5745 510.688L87.1089 510.034ZM91.8457 512.986L91.2676 512.634L92.0865 513.721L92.6003 514.057L91.8457 512.986ZM96.6627 515.863C96.3416 515.675 96.0044 515.479 95.6832 515.283L96.7109 516.722L97.6101 517.294L96.6627 515.863ZM101.576 518.66L100.243 517.916C100.645 518.496 101.03 519.085 101.432 519.665L102.684 520.417C102.315 519.829 101.945 519.248 101.576 518.66ZM106.618 521.382C106.072 521.088 105.526 520.802 104.964 520.507C105.398 521.178 105.831 521.856 106.265 522.527C106.779 522.829 107.308 523.123 107.822 523.426C107.421 522.747 107.019 522.069 106.618 521.382ZM111.74 524.031C111.098 523.704 110.456 523.385 109.813 523.05C110.086 523.5 110.359 523.949 110.632 524.399L111.21 525.323C111.82 525.658 112.431 525.993 113.041 526.328C112.591 525.56 112.158 524.799 111.74 524.031ZM116.975 526.59C116.236 526.238 115.514 525.887 114.775 525.535C115.257 526.369 115.738 527.203 116.22 528.037C116.911 528.405 117.617 528.765 118.324 529.133C117.858 528.282 117.408 527.44 116.975 526.59ZM122.306 529.059C121.487 528.691 120.668 528.323 119.849 527.947C120.331 528.855 120.828 529.762 121.326 530.67C122.113 531.062 122.884 531.446 123.671 531.831C123.221 530.907 122.771 529.983 122.306 529.059ZM189.151 55.59L189.135 55.6227C191.254 57.2006 193.47 58.7622 195.75 60.2992L195.959 59.7841C193.615 58.4106 191.351 57.0126 189.151 55.59ZM190.018 53.6279C189.938 53.8322 189.841 54.0448 189.745 54.2492C191.929 55.68 194.161 57.078 196.489 58.4597C196.633 58.1081 196.778 57.7484 196.906 57.3968C194.546 56.1623 192.25 54.9033 190.018 53.6279ZM190.997 51.1425L190.532 52.3198C192.748 53.6033 195.012 54.8705 197.356 56.1051C197.549 55.5737 197.741 55.0422 197.918 54.519C195.557 53.4153 193.261 52.2871 190.997 51.1425ZM192.089 48.1992C191.896 48.7634 191.704 49.3193 191.495 49.8834C193.727 51.028 196.007 52.1562 198.351 53.2599C198.576 52.565 198.785 51.8783 198.978 51.1833C196.633 50.2104 194.337 49.213 192.089 48.1992ZM193.213 44.7982C192.988 45.5176 192.764 46.2371 192.523 46.9565C194.739 47.9785 197.019 48.9759 199.347 49.957C199.588 49.1067 199.796 48.2646 199.989 47.4307C197.693 46.5722 195.429 45.6893 193.213 44.7982ZM194.273 40.9638C194.048 41.8304 193.823 42.697 193.582 43.5718C195.766 44.4711 197.998 45.3459 200.278 46.1962C200.503 45.2069 200.696 44.2259 200.872 43.2448C198.64 42.509 196.441 41.7404 194.273 40.9638ZM195.204 36.7288C195.012 37.7344 194.819 38.74 194.578 39.7537C196.698 40.5304 198.865 41.2826 201.065 42.0266C201.242 40.9065 201.386 39.7865 201.482 38.6746C199.363 38.0451 197.259 37.391 195.204 36.7288ZM195.895 32.1177C195.766 33.2459 195.622 34.3823 195.429 35.5269C197.452 36.1892 199.507 36.835 201.595 37.4646C201.691 36.2873 201.739 35.1182 201.755 33.9572C199.845 33.3359 197.902 32.7227 195.895 32.1177ZM196.2 27.4821C196.168 28.6185 196.103 29.7549 196.007 30.9077C197.966 31.4964 199.877 32.085 201.755 32.69C201.739 31.5699 201.691 30.458 201.595 29.3543C199.845 28.7166 198.046 28.0952 196.2 27.4821ZM196.152 22.9855C196.216 24.0565 196.248 25.1275 196.248 26.2067C198.03 26.7953 199.764 27.384 201.466 27.989C201.354 26.9425 201.193 25.896 201.017 24.8577C199.427 24.2282 197.805 23.6068 196.152 22.9855ZM195.67 18.636C195.814 19.6253 195.943 20.6146 196.023 21.6201C197.629 22.2006 199.186 22.7893 200.728 23.3861C200.519 22.4132 200.294 21.4566 200.021 20.5001C198.608 19.8705 197.163 19.2492 195.67 18.636ZM194.819 14.4501C195.044 15.3412 195.236 16.2405 195.413 17.1481C196.81 17.704 198.159 18.2763 199.491 18.8404C199.202 17.9656 198.897 17.099 198.544 16.2324C197.34 15.6274 196.087 15.0387 194.819 14.4501ZM193.647 10.4604C193.92 11.2289 194.177 12.0055 194.401 12.7904C195.557 13.3055 196.681 13.8287 197.789 14.352C197.452 13.5998 197.083 12.8476 196.698 12.1037C195.702 11.5559 194.674 11.0081 193.647 10.4604ZM192.153 6.73223C192.426 7.32909 192.667 7.93408 192.908 8.53906C193.759 8.96423 194.61 9.39752 195.445 9.8308C195.108 9.25036 194.755 8.66174 194.385 8.08123C193.647 7.63159 192.908 7.18194 192.153 6.73223ZM190.451 3.38842C190.644 3.7318 190.821 4.07513 191.013 4.42669C191.463 4.68017 191.913 4.93359 192.362 5.18707C192.105 4.85186 191.848 4.50848 191.591 4.17327C191.222 3.91168 190.837 3.65002 190.451 3.38842ZM132.02 -35.3969C132.229 -34.2523 132.438 -33.0914 132.678 -31.9141C134.252 -31.4072 135.777 -30.8922 137.287 -30.3771C137.11 -31.4726 136.95 -32.56 136.805 -33.6228C135.248 -34.2197 133.642 -34.8083 132.02 -35.3969ZM125.228 -37.7352C125.485 -36.4924 125.774 -35.2335 126.079 -33.958C127.572 -33.5165 129.017 -33.0669 130.447 -32.6091C130.206 -33.8272 129.997 -35.0209 129.788 -36.1981C128.311 -36.7214 126.77 -37.2283 125.228 -37.7352ZM118.677 -39.8037C118.998 -38.5282 119.335 -37.2365 119.704 -35.9365C121.053 -35.5032 122.434 -35.0863 123.831 -34.6611C123.526 -35.9529 123.253 -37.2201 122.996 -38.4791C121.583 -38.9288 120.122 -39.3621 118.677 -39.8037ZM112.366 -41.7576C112.72 -40.5149 113.105 -39.264 113.506 -38.005C114.791 -37.5635 116.092 -37.1302 117.392 -36.6969C117.039 -37.9805 116.718 -39.2476 116.413 -40.5067C115.048 -40.9155 113.699 -41.3325 112.366 -41.7576ZM106.249 -43.7525C106.634 -42.567 107.052 -41.3733 107.485 -40.1797C108.689 -39.7301 109.91 -39.2885 111.146 -38.8471C110.761 -40.0653 110.408 -41.2752 110.07 -42.4689C108.77 -42.8858 107.501 -43.3273 106.249 -43.7525ZM100.308 -45.8536C100.725 -44.7335 101.175 -43.5971 101.624 -42.4607C102.748 -42.0029 103.888 -41.5614 105.028 -41.1118C104.627 -42.2645 104.242 -43.4091 103.872 -44.5455C102.668 -44.9788 101.496 -45.4121 100.308 -45.8536ZM94.5593 -48.0365C95.0089 -46.9818 95.4585 -45.919 95.9402 -44.848C96.9678 -44.3983 98.0276 -43.9487 99.0874 -43.5072C98.6538 -44.5864 98.2524 -45.6656 97.867 -46.7366C96.7591 -47.1699 95.6672 -47.6032 94.5593 -48.0365ZM89.0036 -50.3093C89.4692 -49.3201 89.9349 -48.3308 90.4166 -47.3416C91.364 -46.9001 92.3274 -46.4667 93.2908 -46.0253C92.8573 -47.0309 92.4237 -48.0365 92.0223 -49.0339C91.0107 -49.4591 90.0152 -49.8842 89.0036 -50.3093ZM83.6406 -52.664C84.1062 -51.7564 84.5719 -50.8489 85.0696 -49.9415C85.9206 -49.5163 86.7877 -49.0993 87.6387 -48.6824C87.2052 -49.6062 86.7717 -50.5219 86.3542 -51.4376C85.439 -51.8464 84.5398 -52.2551 83.6406 -52.664ZM78.4542 -55.1003C78.9198 -54.2827 79.3855 -53.4733 79.8672 -52.6558C80.6058 -52.2551 81.3605 -51.8709 82.1152 -51.4785C81.6816 -52.3042 81.2642 -53.13 80.8627 -53.9475C80.0438 -54.3318 79.257 -54.716 78.4542 -55.1003ZM73.4926 -57.5938C73.9261 -56.8826 74.3757 -56.1795 74.8253 -55.4682C75.4355 -55.1166 76.0617 -54.7733 76.6879 -54.4217C76.2865 -55.133 75.8851 -55.8442 75.4997 -56.5556C74.8253 -56.8989 74.167 -57.2504 73.4926 -57.5938ZM68.7718 -60.1201C69.1572 -59.5397 69.5586 -58.9592 69.96 -58.3706C70.4257 -58.0844 70.9074 -57.8064 71.3731 -57.5285C71.0198 -58.1089 70.6666 -58.6894 70.3294 -59.2698C69.7995 -59.556 69.2857 -59.8422 68.7718 -60.1201ZM64.3241 -62.6546C64.6291 -62.2377 64.9342 -61.8125 65.2554 -61.3955C65.5444 -61.2075 65.8334 -61.0195 66.1224 -60.8314C65.8495 -61.2484 65.5765 -61.6654 65.3196 -62.0823C64.9824 -62.2785 64.6452 -62.4666 64.3241 -62.6546ZM60.1653 -65.1727L60.6631 -64.5513L60.8397 -64.4205L60.4383 -65.0092L60.1653 -65.1727ZM139.037 -32.7398C139.182 -31.7097 139.342 -30.6632 139.519 -29.6004C152.509 -25.022 163.267 -20.0349 172.05 -14.688C163.749 -21.2122 152.846 -27.2458 139.037 -32.7398ZM52.6988 -72.2119L52.442 -72.3673L52.9397 -71.7459L53.1163 -71.6233L52.6988 -72.2119ZM57.5641 -69.285C57.243 -69.4731 56.9058 -69.6611 56.5846 -69.8573C56.8897 -69.4404 57.1948 -69.0153 57.5159 -68.5983C57.805 -68.4102 58.094 -68.2222 58.383 -68.0342C58.094 -68.4511 57.8371 -68.8681 57.5641 -69.285ZM62.5899 -66.4726C62.0761 -66.7506 61.5623 -67.0368 61.0485 -67.3229C61.4338 -66.7424 61.8353 -66.1619 62.2367 -65.5815C62.7023 -65.2954 63.184 -65.0174 63.6497 -64.7394C63.2804 -65.3117 62.9271 -65.8922 62.5899 -66.4726ZM67.7603 -63.7583C67.0859 -64.1017 66.4275 -64.4451 65.7531 -64.7884C66.1867 -64.0772 66.6363 -63.374 67.0859 -62.6627C67.696 -62.3112 68.3222 -61.9678 68.9485 -61.6245C68.5471 -62.3358 68.1617 -63.0471 67.7603 -63.7583ZM73.1233 -61.1503C72.3204 -61.5345 71.5176 -61.9188 70.7308 -62.3031C71.1964 -61.4855 71.6621 -60.6761 72.1438 -59.8585C72.8824 -59.4579 73.6371 -59.0737 74.3757 -58.6812C73.9422 -59.4988 73.5247 -60.3245 73.1233 -61.1503ZM78.6308 -58.6403C77.7156 -59.0491 76.8003 -59.4579 75.9011 -59.8667C76.3668 -58.9592 76.8324 -58.0517 77.3302 -57.1442C78.1812 -56.7191 79.0483 -56.3021 79.8993 -55.877C79.4658 -56.8008 79.0483 -57.7247 78.6308 -58.6403ZM84.2989 -56.2367C83.2713 -56.6537 82.2757 -57.0788 81.2802 -57.5121C81.7458 -56.5228 82.2115 -55.5336 82.6932 -54.5443C83.6406 -54.1029 84.604 -53.6695 85.5674 -53.228C85.1339 -54.2337 84.7003 -55.2393 84.2989 -56.2367ZM90.1276 -53.9393C89.0036 -54.3645 87.9278 -54.7978 86.8198 -55.2311C87.2695 -54.1764 87.719 -53.1136 88.2007 -52.0426C89.2284 -51.5929 90.2881 -51.1433 91.3479 -50.7018C90.9304 -51.7891 90.529 -52.8684 90.1276 -53.9393ZM96.1489 -51.7482C94.9447 -52.1734 93.7725 -52.6149 92.5843 -53.0482C93.0018 -51.92 93.4514 -50.7917 93.901 -49.6553C95.0249 -49.1975 96.165 -48.7559 97.305 -48.3145C96.9036 -49.4672 96.5182 -50.6118 96.1489 -51.7482ZM102.331 -49.6635C101.046 -50.0804 99.7778 -50.5219 98.5093 -50.947C98.8947 -49.7615 99.3121 -48.5679 99.7457 -47.3743C100.95 -46.9246 102.17 -46.4832 103.407 -46.0416C103.021 -47.2598 102.668 -48.4698 102.331 -49.6635ZM108.673 -47.7013C107.308 -48.1101 105.96 -48.5352 104.627 -48.9522C104.98 -47.7095 105.366 -46.4586 105.767 -45.1996C107.052 -44.7581 108.352 -44.3248 109.653 -43.8915C109.316 -45.1751 108.978 -46.4422 108.673 -47.7013ZM115.241 -45.6737C113.844 -46.1234 112.382 -46.5567 110.937 -46.9982C111.259 -45.7228 111.596 -44.431 111.965 -43.1311C113.314 -42.6978 114.695 -42.2808 116.076 -41.8557C115.787 -43.1475 115.498 -44.4229 115.241 -45.6737ZM122.049 -43.4009C120.572 -43.916 119.03 -44.4229 117.489 -44.9298C117.746 -43.687 118.035 -42.428 118.34 -41.1608C119.833 -40.7192 121.262 -40.2696 122.707 -39.8118C122.466 -41.03 122.258 -42.2236 122.049 -43.4009ZM129.082 -40.8174C127.524 -41.4143 125.919 -42.0111 124.281 -42.5997C124.489 -41.4551 124.698 -40.2941 124.939 -39.1168C126.513 -38.6099 128.054 -38.0949 129.563 -37.5717C129.387 -38.6754 129.226 -39.7546 129.082 -40.8174ZM136.275 -37.8823C134.653 -38.5773 133 -39.2722 131.282 -39.9508C131.426 -38.9207 131.587 -37.8742 131.763 -36.8113C133.401 -36.2308 135.039 -35.6504 136.596 -35.0618C136.5 -36.0183 136.388 -36.9585 136.275 -37.8823ZM164.359 -21.8662C157.535 -27.2294 148.992 -32.2575 138.507 -36.934C138.603 -36.0346 138.732 -35.119 138.844 -34.187C148.751 -30.3362 157.213 -26.2238 164.359 -21.8662ZM176.899 -9.21027C176.642 -9.55366 176.385 -9.88886 176.112 -10.2322C166.864 -16.7564 154.869 -22.7655 139.776 -28.2023C139.984 -27.0577 140.193 -25.8969 140.434 -24.7196C155.046 -19.994 167.121 -14.8106 176.899 -9.21027ZM179.966 -4.55836C179.629 -5.1388 179.276 -5.72749 178.906 -6.30793C168.967 -12.5051 156.346 -18.1953 140.723 -23.3378C140.98 -22.0951 141.269 -20.8361 141.574 -19.5689C156.844 -15.015 169.545 -9.99519 179.966 -4.55836ZM182.31 -0.0453562C181.973 -0.797553 181.604 -1.54151 181.235 -2.27735C170.766 -8.07386 157.759 -13.3962 141.911 -18.2035C142.232 -16.9281 142.57 -15.6364 142.939 -14.3364C144.85 -13.7233 146.793 -13.1182 148.768 -12.5296C161.725 -8.69526 172.853 -4.52564 182.31 -0.0453562ZM184.029 4.44305C183.74 3.56829 183.434 2.70165 183.081 1.83501C173.27 -3.01313 161.549 -7.50159 147.708 -11.5976C146.214 -12.0391 144.785 -12.4969 143.324 -12.9547C143.677 -11.712 144.063 -10.4611 144.464 -9.2021C148.35 -7.8531 152.348 -6.56141 156.491 -5.33503C166.799 -2.27735 175.952 0.984734 184.029 4.44305ZM185.265 8.98876C185.056 8.01586 184.831 7.05926 184.558 6.10272C176.129 2.36645 166.462 -1.14094 155.447 -4.40302C151.834 -5.47401 148.366 -6.60224 144.946 -7.75501C145.331 -6.56959 145.749 -5.37592 146.182 -4.17408C151.899 -2.03205 157.904 -0.00446367 164.23 1.86773C171.857 4.1242 178.858 6.50335 185.265 8.98876ZM185.988 13.5916C185.875 12.5452 185.715 11.4987 185.538 10.4604C178.794 7.77056 171.36 5.21154 163.171 2.79156C157.438 1.09106 151.979 -0.732125 146.744 -2.65339C147.162 -1.52516 147.611 -0.39692 148.061 0.739493C155.495 3.74816 163.428 6.53606 171.954 9.06231C176.899 10.5257 181.572 12.0383 185.988 13.5916ZM186.277 18.2845C186.26 17.1644 186.212 16.0525 186.116 14.9488C181.363 13.2401 176.289 11.5804 170.91 9.98614C163.042 7.65606 155.688 5.0971 148.735 2.35827C149.185 3.42113 149.635 4.48394 150.116 5.54681C159.124 9.4793 168.951 13.0766 179.693 16.2569C181.941 16.9273 184.141 17.6059 186.277 18.2845ZM186.132 23.0672C186.228 21.8899 186.277 20.7208 186.293 19.5599C183.82 18.7587 181.283 17.9656 178.65 17.1889C168.646 14.2293 159.445 10.9018 150.919 7.2882C151.385 8.27746 151.85 9.26672 152.348 10.256C162.464 15.006 173.688 19.3146 186.132 23.0672ZM185.586 27.6293C185.747 26.5092 185.907 25.3891 186.004 24.2772C174.009 20.7045 163.155 16.6166 153.28 12.1282C153.745 13.0357 154.227 13.9432 154.709 14.8506C164.006 19.5272 174.25 23.8194 185.586 27.6293ZM184.815 31.7989C185.04 30.8096 185.233 29.8285 185.409 28.8474C174.619 25.2665 164.808 21.244 155.849 16.8946C156.314 17.7122 156.78 18.5298 157.262 19.3392C165.579 23.8357 174.748 28.0217 184.815 31.7989ZM183.884 35.5597C184.125 34.7094 184.334 33.8673 184.526 33.0334C175.133 29.5424 166.526 25.7161 158.626 21.6201C159.06 22.3314 159.51 23.0427 159.959 23.754C167.233 27.9399 175.181 31.9051 183.884 35.5597ZM182.889 38.8708C183.113 38.1759 183.322 37.481 183.531 36.7942C175.663 33.5239 168.389 30.0084 161.661 26.2884C162.047 26.8689 162.448 27.4576 162.849 28.038C168.983 31.8397 175.647 35.4615 182.889 38.8708ZM181.893 41.7159C182.086 41.1845 182.278 40.6531 182.455 40.1298C176.209 37.2275 170.38 34.1616 164.937 30.9567C165.242 31.3819 165.547 31.7988 165.868 32.224C170.846 35.5106 176.177 38.6827 181.893 41.7159ZM181.01 44.0705C181.154 43.719 181.299 43.3592 181.427 43.0077C176.883 40.6367 172.596 38.184 168.518 35.6496C168.694 35.8621 168.855 36.0747 169.031 36.2873C172.805 38.9525 176.787 41.5524 181.01 44.0705ZM180.287 45.9018L180.496 45.3868C177.975 43.907 175.534 42.4027 173.19 40.8657C175.454 42.5744 177.831 44.2504 180.287 45.9018ZM79.3694 502.84L79.241 502.758L79.7869 503.453L79.8351 503.494L79.3694 502.84ZM84.1062 505.791L83.5281 505.439L84.347 506.527L84.8609 506.87L84.1062 505.791ZM88.9393 508.669L87.9599 508.088L88.9875 509.527L89.8867 510.1L88.9393 508.669ZM93.8528 511.465L92.52 510.721C92.9215 511.301 93.3068 511.89 93.7083 512.471L94.9607 513.223C94.5914 512.634 94.2221 512.045 93.8528 511.465ZM98.8786 514.187C98.3326 513.893 97.7867 513.607 97.2247 513.313C97.6583 513.983 98.0918 514.662 98.5253 515.332C99.0392 515.635 99.569 515.929 100.083 516.231C99.6814 515.553 99.28 514.866 98.8786 514.187ZM104.001 516.828C103.358 516.501 102.716 516.182 102.074 515.847C102.347 516.297 102.62 516.746 102.893 517.196L103.471 518.12C104.081 518.455 104.691 518.79 105.301 519.126C104.852 518.365 104.418 517.597 104.001 516.828ZM109.235 519.395C108.497 519.044 107.774 518.692 107.036 518.341C107.517 519.175 107.999 520.008 108.481 520.842C109.171 521.21 109.878 521.57 110.584 521.938C110.118 521.088 109.669 520.237 109.235 519.395ZM114.582 521.864C113.763 521.496 112.944 521.129 112.126 520.752C112.607 521.66 113.105 522.567 113.603 523.475C114.39 523.867 115.16 524.252 115.947 524.636C115.481 523.712 115.032 522.788 114.582 521.864ZM120.042 524.243C119.142 523.867 118.243 523.483 117.344 523.091C117.826 524.072 118.324 525.045 118.837 526.026C119.704 526.435 120.555 526.835 121.423 527.228C120.957 526.23 120.491 525.241 120.042 524.243ZM125.629 526.516C124.65 526.132 123.687 525.74 122.707 525.347C123.189 526.394 123.687 527.44 124.184 528.478C125.116 528.895 126.063 529.304 126.994 529.713C126.545 528.65 126.079 527.587 125.629 526.516ZM131.362 528.683C130.302 528.299 129.258 527.906 128.215 527.514C128.696 528.626 129.178 529.738 129.676 530.841C130.687 531.266 131.699 531.675 132.711 532.084C132.245 530.956 131.795 529.819 131.362 528.683ZM127.524 525.903C128.6 526.328 129.692 526.737 130.768 527.146C117.119 490.323 117.762 452.167 140.306 418.818C163.893 383.941 199.588 347.919 234.399 312.805C303.476 243.107 368.988 176.999 328.557 131.019C356.609 176.868 294.179 239.869 228.538 306.092C193.743 341.19 158.064 377.196 134.557 411.967C110.889 446.992 111.515 487.379 127.524 525.903ZM121.936 523.647C122.948 524.072 123.96 524.481 124.971 524.889C109.38 486.554 109.027 446.46 132.582 411.624C156.17 376.746 191.864 340.724 226.676 305.61C295.769 235.912 361.265 169.796 320.834 123.824C348.885 169.673 286.456 232.675 220.815 298.906C186.02 334.004 150.341 370.01 126.818 404.781C102.138 441.293 103.872 483.643 121.936 523.647ZM116.461 521.284C117.392 521.701 118.34 522.11 119.271 522.518C101.705 482.744 100.292 440.729 124.843 404.429C148.43 369.552 184.125 333.53 218.936 298.415C286.665 230.091 350.94 165.209 315.358 119.368C314.989 119.107 314.604 118.837 314.218 118.575C339.396 164.245 277.801 226.412 213.076 291.703C178.28 326.801 142.602 362.807 119.094 397.578C93.4032 435.57 96.3095 479.874 116.461 521.284ZM111.114 518.823C111.981 519.232 112.832 519.632 113.699 520.025C94.1257 478.877 91.6048 434.965 117.119 397.226C140.707 362.349 176.402 326.327 211.213 291.213C277.03 224.802 339.62 161.653 310.413 116.065C309.69 115.616 308.952 115.166 308.197 114.716C328.702 160.059 268.52 220.787 205.368 284.5C170.573 319.598 134.894 355.604 111.387 390.375C84.6842 429.823 88.843 476.081 111.114 518.823ZM105.879 516.272C106.666 516.665 107.437 517.049 108.224 517.433C86.6111 474.969 82.9019 429.177 109.38 390.032C132.967 355.154 168.662 319.132 203.474 284.018C267.38 219.537 328.252 158.129 304.986 112.893C303.99 112.337 302.978 111.79 301.935 111.25C317.687 156.167 259.063 215.326 197.613 277.314C162.817 312.412 127.139 348.418 103.615 383.189C75.9814 424.059 81.4407 472.254 105.879 516.272ZM100.741 513.64C101.432 514.008 102.138 514.367 102.845 514.735C79.1767 471.028 74.2312 423.372 101.64 382.837C125.228 347.96 160.923 311.938 195.734 276.823C257.73 214.28 316.836 154.622 299.109 109.819C297.888 109.214 296.652 108.626 295.367 108.029C306.495 152.431 249.509 209.938 189.873 270.111C155.078 305.209 119.399 341.215 95.892 375.986C67.2946 418.279 74.1348 468.412 100.741 513.64ZM95.7314 510.925C96.3416 511.261 96.9518 511.596 97.5619 511.931C71.8066 467.038 65.5765 417.527 93.9009 375.634C117.489 340.757 153.183 304.735 187.995 269.621C248.048 209.039 305.403 151.172 292.83 106.876C291.417 106.246 289.972 105.625 288.479 105.012C295.207 148.809 239.923 204.616 182.134 262.908C147.338 298.007 111.66 334.012 88.1526 368.783C58.8005 412.188 66.7808 463.85 95.1534 509.993L95.7314 510.925ZM90.802 508.129L92.3595 509.029C64.5007 463.016 56.9379 411.673 86.1615 368.44C109.749 333.563 145.444 297.541 180.255 262.426C238.365 203.815 293.922 147.738 286.086 104.039C284.497 103.409 282.875 102.78 281.221 102.167C283.855 145.277 230.289 199.334 174.394 255.714C139.599 290.812 103.92 326.818 80.397 361.589C51.045 404.993 59.0252 456.655 87.3979 502.799C88.5219 504.589 89.6459 506.363 90.802 508.129ZM85.9688 505.268L87.2213 506.02C86.6111 505.055 86.0009 504.09 85.4068 503.126C56.9057 456.786 48.9255 404.887 78.4381 361.245C102.026 326.368 137.72 290.346 172.532 255.231C228.651 198.607 282.426 144.353 278.941 101.333C277.191 100.703 275.393 100.082 273.546 99.4606C272.422 141.811 220.622 194.069 166.671 248.519C131.876 283.617 96.1971 319.623 72.6897 354.394C43.3376 397.799 51.3179 449.461 79.6905 495.604C81.6816 498.858 83.7851 502.079 85.9688 505.268ZM81.2481 502.325L82.1472 502.897C80.6058 500.591 79.1125 498.261 77.6834 495.923C49.1823 449.583 41.202 397.684 70.7147 354.043C94.3024 319.165 129.997 283.143 164.808 248.029C218.952 193.407 270.897 140.993 271.378 98.7411C269.468 98.1198 267.525 97.5066 265.518 96.9016C260.957 138.393 210.956 188.845 158.948 241.317C124.152 276.415 88.4737 312.42 64.9503 347.191C35.5982 390.596 43.5785 442.258 71.9511 488.401C74.8413 493.111 77.9403 497.754 81.2481 502.325ZM76.6076 499.324L77.1214 499.667C74.6005 496.062 72.208 492.416 69.944 488.737C41.4429 442.397 33.4626 390.498 62.9753 346.856C86.5629 311.979 122.258 275.957 157.069 240.842C209.206 188.24 259.304 137.674 263.366 96.2721C261.246 95.6426 259.143 94.9885 257.088 94.3263C249.525 134.91 201.306 183.572 151.208 234.122C116.413 269.22 80.7342 305.226 57.2108 339.997C27.8587 383.401 35.839 435.063 64.2116 481.207C68.0011 487.355 72.1438 493.405 76.6076 499.324ZM72.0474 496.258L72.0956 496.299C68.5631 491.451 65.2714 486.529 62.1885 481.534C33.6874 435.194 25.7071 383.295 55.2198 339.653C78.8074 304.776 114.502 268.754 149.313 233.64C199.556 182.959 247.903 134.166 255 93.6396C252.752 92.8956 250.552 92.1352 248.401 91.3504C238.446 131.076 191.816 178.127 143.453 226.927C108.657 262.025 72.9787 298.031 49.4714 332.802C20.1193 376.207 28.0996 427.869 56.4722 474.012C61.1448 481.599 66.3633 489.031 72.0474 496.258ZM181.427 48.3954L181.411 48.4281C183.531 50.006 185.747 51.5676 188.027 53.1046L188.235 52.5895C185.891 51.2078 183.627 49.8098 181.427 48.3954ZM182.278 46.4251C182.198 46.6295 182.102 46.8421 182.005 47.0464C184.189 48.4772 186.421 49.8752 188.749 51.2569C188.894 50.8972 189.038 50.5456 189.167 50.1941C186.806 48.9677 184.51 47.7087 182.278 46.4251ZM183.274 43.956L182.808 45.1252C185.024 46.4087 187.288 47.676 189.632 48.9105C189.825 48.3791 190.018 47.8558 190.194 47.3244C187.818 46.2207 185.522 45.1006 183.274 43.956ZM184.366 40.9965C184.173 41.5606 183.98 42.1165 183.772 42.6888C186.004 43.8334 188.284 44.9617 190.628 46.0654C190.853 45.3704 191.062 44.6755 191.254 43.9888C188.894 43.0159 186.598 42.0184 184.366 40.9965ZM185.474 37.5954C185.249 38.3148 185.024 39.0343 184.783 39.7619C186.999 40.7839 189.279 41.7813 191.607 42.7624C191.848 41.9121 192.057 41.07 192.25 40.2361C189.954 39.3695 187.69 38.4947 185.474 37.5954ZM186.533 33.7692C186.309 34.6358 186.084 35.5024 185.843 36.3772C188.027 37.2765 190.259 38.1513 192.539 39.0098C192.764 38.0205 192.956 37.0394 193.133 36.0665C190.901 35.3062 188.701 34.5459 186.533 33.7692ZM187.481 29.5342C187.288 30.5398 187.095 31.5454 186.855 32.5592C188.974 33.3358 191.126 34.0962 193.342 34.832C193.518 33.712 193.663 32.5919 193.759 31.48C191.624 30.8423 189.536 30.1964 187.481 29.5342ZM188.171 24.9231C188.043 26.0514 187.898 27.1878 187.706 28.3242C189.729 28.9864 191.784 29.6323 193.871 30.2618C193.968 29.0845 194.016 27.9154 194.032 26.7544C192.121 26.1413 190.162 25.5281 188.171 24.9231ZM188.476 20.2794C188.444 21.4158 188.38 22.5604 188.284 23.7049C190.243 24.2936 192.153 24.8822 194.032 25.4872C194.016 24.3672 193.968 23.2553 193.871 22.1516C192.105 21.522 190.307 20.9007 188.476 20.2794ZM188.412 15.7909C188.476 16.8619 188.508 17.9329 188.508 19.0121C190.291 19.6008 192.025 20.1894 193.727 20.7944C193.615 19.7479 193.454 18.7014 193.277 17.6631C191.688 17.0336 190.066 16.404 188.412 15.7909ZM187.93 11.4333C188.075 12.4225 188.203 13.4199 188.284 14.4174C189.889 14.9979 191.447 15.5865 192.988 16.1833C192.78 15.2104 192.555 14.2538 192.282 13.2973C190.869 12.6678 189.424 12.0546 187.93 11.4333ZM187.079 7.24731C187.304 8.13848 187.497 9.03777 187.674 9.94524C189.054 10.5012 190.419 11.0654 191.752 11.6376C191.463 10.7629 191.158 9.89623 190.805 9.0296C189.6 8.43279 188.364 7.83593 187.079 7.24731ZM185.907 3.2658C186.18 4.04247 186.437 4.81097 186.662 5.59582C187.818 6.11089 188.942 6.63415 190.05 7.1574C189.713 6.40527 189.343 5.65307 188.958 4.90911C187.963 4.35314 186.951 3.80535 185.907 3.2658ZM184.414 -0.45417C184.687 0.142693 184.912 0.739495 185.153 1.34448C186.004 1.76965 186.855 2.20294 187.69 2.63622C187.352 2.05578 186.999 1.47533 186.63 0.89483C185.907 0.445184 185.169 -0.00446248 184.414 -0.45417ZM182.728 -3.81434C182.921 -3.47095 183.113 -3.11945 183.29 -2.76789C183.74 -2.51441 184.189 -2.26099 184.639 -2.00751C184.382 -2.3509 184.125 -2.6861 183.852 -3.02949C183.483 -3.29108 183.097 -3.55274 182.728 -3.81434ZM-5.95821e-05 -198.403L0.497682 -199L2.7778 -199C1.5896 -197.561 0.658296 -196.457 -5.97011e-05 -195.681L-5.95821e-05 -198.403ZM-6.26126e-05 -129.074C4.01419 -121.683 8.92761 -114.219 14.949 -106.885C8.57434 -115.796 3.7091 -124.79 -6.24185e-05 -133.513L-6.21902e-05 -138.737C4.81705 -126.073 12.0106 -112.673 22.6884 -99.6904C10.2925 -117.031 3.5646 -134.707 -6.16963e-05 -150.036L-6.12224e-05 -160.877C2.98654 -141.46 10.8866 -116.262 30.4118 -92.4876C-2.61734 -138.68 4.62436 -187.268 4.65646 -187.489L4.67249 -187.587L4.75278 -187.669C4.81702 -187.734 8.42984 -191.895 14.114 -198.992L16.3781 -198.992C10.8705 -192.1 7.22559 -187.865 6.74387 -187.309C6.39063 -184.75 -0.417512 -132.221 38.1673 -85.2766C5.13818 -131.477 12.3638 -180.065 12.3959 -180.286L12.412 -180.384L12.4922 -180.466C12.5725 -180.556 18.6742 -187.579 27.5215 -198.992L29.7856 -198.992C21.1951 -187.889 15.1256 -180.842 14.4994 -180.114C14.1461 -177.572 7.43432 -125.664 45.2324 -78.9323L45.409 -78.8097C12.974 -124.79 20.1353 -172.871 20.1675 -173.083L20.1835 -173.181L20.2638 -173.263C20.3602 -173.369 29.047 -183.385 40.7846 -198.984L43.0326 -198.984C31.6321 -183.785 23.0096 -173.786 22.2549 -172.912C21.9177 -170.443 15.5591 -121.413 49.8247 -75.7847C50.1137 -75.5966 50.4027 -75.4086 50.6917 -75.2206C21.0988 -120.064 27.8748 -165.668 27.907 -165.881L27.923 -165.979L28.0033 -166.06C28.1157 -166.183 39.5321 -179.329 53.855 -198.984L56.0869 -198.984C42.1334 -179.795 30.8614 -166.723 29.9944 -165.709C29.6572 -163.313 23.684 -117.154 54.5615 -72.7515C55.0271 -72.4654 55.5088 -72.1874 55.9745 -71.9094C29.2397 -115.469 35.6303 -158.473 35.6624 -158.678L35.6785 -158.776L35.7588 -158.858C35.8712 -158.997 50.1137 -175.389 66.7808 -198.976L68.9966 -198.976C52.747 -175.912 38.7293 -159.634 37.7498 -158.506C37.4287 -156.192 31.8248 -112.87 59.4428 -69.841C60.0529 -69.4895 60.6791 -69.1461 61.2893 -68.8027C37.3645 -110.924 43.3698 -151.287 43.3858 -151.483L43.4019 -151.581L43.4822 -151.663C43.6106 -151.81 60.7916 -171.595 79.4979 -198.984L81.7137 -198.984C63.4409 -172.168 46.549 -152.562 45.4732 -151.311C45.1682 -149.071 39.9175 -108.569 64.4686 -67.0286C65.2072 -66.6362 65.9619 -66.2437 66.7005 -65.8513C45.4893 -106.394 51.0931 -144.084 51.1253 -144.28L51.1413 -144.378L51.2216 -144.46C51.3661 -144.624 71.6139 -167.933 92.0705 -198.976L94.2703 -198.976C74.2633 -168.529 54.3848 -145.458 53.2127 -144.109C52.9076 -141.95 48.0423 -104.244 69.671 -64.3225C70.522 -63.8973 71.3891 -63.4804 72.2401 -63.0634C53.6462 -101.89 58.8326 -136.898 58.8647 -137.086L58.8808 -137.184L58.9611 -137.266C59.1056 -137.437 82.5327 -164.409 104.466 -198.976L106.57 -198.976C85.1017 -165.03 62.1403 -138.369 60.8718 -136.914C60.5828 -134.838 56.0708 -99.8947 74.9538 -61.7225C75.9011 -61.2811 76.8646 -60.8396 77.828 -60.4063C61.7068 -97.3767 66.4918 -129.711 66.5239 -129.883L66.5399 -129.981L66.6202 -130.063C66.7808 -130.251 93.5156 -161.016 116.589 -198.976L118.757 -198.976C96.1329 -161.678 69.944 -131.273 68.5952 -129.711C68.3223 -127.725 64.1635 -95.5208 80.4613 -59.2208C81.4889 -58.7712 82.5487 -58.3215 83.6085 -57.88C69.8155 -92.8555 74.2151 -122.509 74.2312 -122.68L74.2473 -122.778L74.3275 -122.86C74.5042 -123.056 104.659 -157.778 128.584 -198.967L130.736 -198.967C107.276 -158.457 77.7477 -124.168 76.3186 -122.509C76.0617 -120.612 72.2562 -91.1141 86.1455 -56.8253C87.2695 -56.3675 88.4095 -55.926 89.5495 -55.4846C77.9564 -88.3344 81.9546 -115.322 81.9707 -115.486L81.9867 -115.584L82.067 -115.666C82.2436 -115.878 115.995 -154.713 140.402 -198.976L142.537 -198.976C118.58 -155.407 85.5674 -117.072 84.0581 -115.314C83.8011 -113.507 80.3489 -86.6992 91.9902 -54.5443C93.1945 -54.0947 94.4148 -53.6532 95.6512 -53.2117C86.0812 -83.7887 89.694 -108.128 89.7101 -108.283L89.7261 -108.381L89.8064 -108.463C89.9991 -108.684 127.46 -151.81 151.995 -198.967L154.131 -198.967C130.045 -152.505 93.4032 -109.959 91.8136 -108.111C91.5727 -106.394 88.4577 -82.2435 98.0437 -52.3696C99.3282 -51.9281 100.629 -51.4948 101.929 -51.0615C94.2382 -79.2266 97.4496 -100.941 97.4656 -101.088L97.4817 -101.186L97.5619 -101.268C97.7707 -101.505 139.101 -149.096 163.379 -198.967L165.499 -198.967C141.67 -149.791 101.239 -102.862 99.5691 -100.917C99.3443 -99.2979 96.5664 -77.7714 104.258 -50.3093C105.606 -49.876 106.987 -49.4591 108.384 -49.0339C102.395 -74.6483 105.205 -93.7548 105.237 -93.8938L105.253 -93.9919L105.334 -94.0737C105.542 -94.3189 150.951 -146.586 174.523 -198.976L176.578 -198.976C153.424 -147.305 109.043 -95.7905 107.276 -93.7467C107.068 -92.2341 104.627 -73.2911 110.6 -48.3554C112.093 -47.9139 113.523 -47.4642 114.968 -47.0064C110.456 -69.9882 112.912 -86.5847 112.928 -86.7074L112.944 -86.8055L113.025 -86.8873C113.25 -87.1407 162.898 -144.297 185.313 -198.984L187.417 -198.984C165.386 -144.984 116.878 -88.6696 115.032 -86.5357C114.839 -85.1295 112.72 -68.6473 117.232 -46.3033C118.805 -45.7964 120.331 -45.2813 121.856 -44.7581C118.58 -65.1318 120.684 -79.3901 120.7 -79.5046L120.716 -79.6027L120.796 -79.6845C121.021 -79.9543 175.133 -142.237 195.879 -198.984L197.95 -198.984C177.558 -142.907 124.714 -81.5649 122.787 -79.333C122.611 -78.033 120.78 -63.8155 124.072 -43.9896C125.71 -43.4091 127.348 -42.8286 128.921 -42.2399C126.625 -60.0874 128.423 -72.2037 128.439 -72.31L128.456 -72.4082L128.536 -72.4899C128.777 -72.7679 187.561 -140.446 206.075 -198.984L208.13 -198.984C189.921 -141.092 132.55 -74.4685 130.527 -72.1384C130.366 -70.9365 128.793 -58.7793 131.137 -41.3734C132.855 -40.703 134.541 -40.0244 136.179 -39.3458C134.67 -54.806 136.179 -65.0092 136.195 -65.1154L136.211 -65.2136L136.291 -65.2954C136.548 -65.5815 200.278 -138.95 215.902 -198.992L217.957 -198.992C202.574 -139.579 140.386 -67.372 138.298 -64.9438C138.138 -63.8483 136.821 -53.5306 138.411 -38.4056C154.998 -31.2192 166.992 -23.1825 175.069 -14.4182C177.959 -12.08 180.528 -9.68446 182.792 -7.23176C185.682 -4.8935 188.252 -2.49805 190.516 -0.0453558C193.406 2.2929 195.975 4.69653 198.255 7.14922C201.145 9.48748 203.714 11.8829 205.978 14.3438C208.869 16.6821 211.438 19.0857 213.718 21.5384C216.608 23.8766 219.193 26.2803 221.457 28.7411C224.348 31.0794 226.917 33.483 229.197 35.9357C232.087 38.274 234.656 40.6776 236.936 43.1303C239.826 45.4686 242.412 47.8722 244.676 50.333C247.566 52.6713 250.135 55.0749 252.415 57.5276C255.305 59.8659 257.874 62.2695 260.155 64.7222C263.045 67.0605 265.63 69.4641 267.894 71.925C270.784 74.2632 273.353 76.6669 275.633 79.1196C278.524 81.4578 281.093 83.8614 283.373 86.3141C286.263 88.6524 288.848 91.056 291.112 93.5169C294.003 95.8552 296.572 98.2588 298.852 100.711C301.742 103.05 304.327 105.453 306.591 107.914C309.481 110.261 312.067 112.664 314.331 115.125C317.253 117.488 319.838 119.908 322.118 122.393C379.377 168.905 309.851 239.076 236.278 313.295C201.482 348.393 165.804 384.399 142.281 419.17C119.64 452.657 119.223 491.058 133.24 528.053C137.319 529.525 141.413 530.874 145.492 532.1C146.375 532.37 147.435 532.664 148.639 533L144.352 533C140.851 531.953 137.351 530.809 133.851 529.574C134.3 530.719 134.75 531.855 135.232 533L131.571 533L130.447 532.55L130.655 533L128.488 533L127.765 531.438C126.866 531.062 125.967 530.678 125.067 530.285C125.517 531.193 125.983 532.092 126.448 533L123.044 533L122.482 532.73L122.643 533L120.443 533C120.106 532.411 119.769 531.814 119.448 531.226C118.805 530.898 118.163 530.58 117.521 530.244C117.794 530.694 118.067 531.144 118.34 531.593L118.934 532.517L119.801 533L116.959 533L115.722 532.305L116.188 533L104.547 533C103.856 532.346 103.166 531.683 102.475 531.029C99.842 528.675 97.2729 526.271 94.752 523.835C92.1186 521.48 89.5495 519.085 87.0286 516.64C84.3952 514.277 81.8101 511.874 79.2891 509.429C76.6558 507.075 74.0867 504.671 71.5657 502.235C68.9324 499.88 66.3633 497.476 63.8263 495.04C61.193 492.677 58.6078 490.274 56.0708 487.829C53.4535 485.474 50.8844 483.079 48.3474 480.651C45.714 478.288 43.1289 475.884 40.5919 473.44C25.1291 459.566 11.3361 444.212 -8.69634e-05 428.008L-8.68219e-05 424.77C3.2916 429.627 6.80805 434.417 10.5333 439.118C6.90439 434.14 3.48426 429.079 0.337102 423.953L-8.67618e-05 423.397L-8.66014e-05 419.726C0.770665 421.034 1.54136 422.334 2.34421 423.634C7.09708 431.376 12.4441 438.963 18.2727 446.329C14.6439 441.35 11.2237 436.29 8.07657 431.155C5.17026 426.422 2.47269 421.631 -8.64731e-05 416.791L-8.62815e-05 412.409C2.98652 418.622 6.35849 424.778 10.0837 430.837C14.8366 438.579 20.1835 446.158 25.9961 453.516C22.3673 448.545 18.9632 443.484 15.8 438.35C9.44141 428.024 4.12656 417.42 -8.60317e-05 406.694L-8.57751e-05 400.824C4.3353 413.439 10.3727 425.923 17.8071 438.031C22.576 445.773 27.9069 453.36 33.7356 460.727C30.1067 455.748 26.6866 450.687 23.5394 445.553C11.8499 426.544 3.61274 406.596 -8.51562e-05 386.663L-8.32518e-05 343.095C2.68144 329.491 8.06053 316.238 16.5707 303.672C40.1584 268.795 75.8529 232.773 110.664 197.658C154.243 153.69 196.392 111.16 211.438 74.1978C209.093 72.8243 206.829 71.4263 204.63 70.0037C188.557 106.434 147.355 148.008 104.804 190.946C70.0082 226.044 34.3297 262.05 10.8223 296.821C6.37452 303.386 2.7938 310.147 0.0159701 317.04L0.0159703 312.085C2.47267 306.779 5.39503 301.571 8.84727 296.47C32.4349 261.592 68.1296 225.57 102.941 190.456C145.781 147.231 187.24 105.396 202.928 68.8755C200.631 67.3548 198.416 65.8178 196.28 64.248C179.757 100.327 139.069 141.377 97.0802 183.744C62.2848 218.842 26.6063 254.847 3.09892 289.618C2.02311 291.213 0.995433 292.815 0.0159711 294.434L0.0159713 290.926C0.369212 290.37 0.738536 289.823 1.10783 289.267C24.6955 254.389 60.3901 218.367 95.2016 183.253C137.528 140.56 178.489 99.2071 194.61 63.0135C192.378 61.3375 190.211 59.6288 188.139 57.9119C171.376 93.7867 131.009 134.518 89.3568 176.549C56.7933 209.399 23.4431 243.05 0.0320242 275.736L0.0320243 272.646C23.3788 240.728 55.8139 208.017 87.4782 176.058C129.499 133.659 170.204 92.5849 186.55 56.5711C184.382 54.7152 182.294 52.843 180.303 50.9462C163.476 86.7638 123.189 127.413 81.6334 169.354C52.5061 198.738 22.7526 228.767 0.032025 258.167L0.0320251 255.264C22.5278 226.6 51.4303 197.438 79.7548 168.864C121.744 126.506 162.416 85.472 178.778 49.4746C178.409 49.1149 178.055 48.7634 177.686 48.4036C174.94 46.0245 172.355 43.6127 169.915 41.1681C167.201 38.8054 164.632 36.4099 162.191 33.9817C159.461 31.6189 156.892 29.2153 154.452 26.7871C151.722 24.4162 149.153 22.0126 146.712 19.5844C143.999 17.2217 141.43 14.8262 139.005 12.4062C136.275 10.0352 133.69 7.6234 131.249 5.18706C128.536 2.82427 125.951 0.420645 123.526 -2.00752C120.796 -4.37849 118.227 -6.77394 115.787 -9.21028C113.073 -11.5731 110.488 -13.9767 108.063 -16.4049C105.334 -18.7758 102.764 -21.1713 100.324 -23.6076C97.594 -25.9786 95.025 -28.3822 92.5682 -30.8186C89.8546 -33.1813 87.2855 -35.5768 84.8448 -37.9968C82.1152 -40.3677 79.53 -42.7796 77.0894 -45.2077C74.3757 -47.5705 71.7906 -49.9741 69.366 -52.4023C66.6363 -54.7733 64.0672 -57.1687 61.6265 -59.6051C58.9129 -61.9678 56.3438 -64.3634 53.9031 -66.7833C51.1734 -69.1542 48.6043 -71.5497 46.1637 -73.986C43.434 -76.357 40.8649 -78.7606 38.4243 -81.1888C35.7106 -83.5516 33.1254 -85.9552 30.7008 -88.3834C17.1809 -100.132 7.27371 -112.747 0.0159895 -125.247L0.0159896 -129.074L-6.26126e-05 -129.074Z" fill="black"/>
</svg>
